<svg width="10" height="10" viewBox="0 0 10 10" fill="none" xmlns="http://www.w3.org/2000/svg">
<path d="M1.65281 5.90748L6.82499 5.90748L4.97017 7.76055C4.63758 8.09401 4.64184 8.62587 4.97443 8.95512C5.31128 9.28436 5.8528 9.28014 6.18113 8.9509L8.57747 6.55331C9.40468 5.7302 9.40468 4.39211 8.57747 3.57321L6.05321 1.049C5.88692 0.884372 5.66519 0.79995 5.44773 0.79995C5.23027 0.79995 5.01281 0.880151 4.84651 1.04477C4.51392 1.37402 4.50966 1.90588 4.84225 2.23935L6.82499 4.21904L1.65281 4.21904C1.18377 4.21904 0.800019 4.59894 0.800019 5.06326C0.800019 5.52758 1.18377 5.90748 1.65281 5.90748Z" fill="#56D1EE"/>
</svg>
