<svg width="12" height="12" viewBox="0 0 12 12" fill="none" xmlns="http://www.w3.org/2000/svg">
<path d="M1.22133 4.70353H8.61016L5.96041 2.05629C5.48529 1.57991 5.49138 0.820114 5.96651 0.349763C6.44772 -0.120588 7.22133 -0.114558 7.69036 0.355793L11.1137 3.78091C12.2954 4.95679 12.2954 6.86835 11.1137 8.0382L7.50762 11.6442C7.27006 11.8794 6.95331 12 6.64265 12C6.33199 12 6.02133 11.8854 5.78377 11.6503C5.30864 11.1799 5.30255 10.4201 5.77767 9.94372L8.61016 7.11558H1.22133C0.551285 7.11558 0.00306225 6.57287 0.00306225 5.90956C0.00306225 5.24624 0.551285 4.70353 1.22133 4.70353Z" fill="#768099"/>
</svg>
