<svg width="1548" height="809" viewBox="0 0 1548 809" fill="none" xmlns="http://www.w3.org/2000/svg">
<path d="M1542.81 572.835V580.338H1517.84V572.835H1542.81ZM1545.16 569H1515.48C1514.67 569 1514 569.672 1514 570.484V582.717C1514 583.529 1514.67 584.201 1515.48 584.201H1545.16C1545.97 584.201 1546.64 583.529 1546.64 582.717V570.484C1546.67 569.644 1546 569 1545.16 569Z" fill="#E7F1F6"/>
<path d="M1409.81 213.863V221.366H1384.84V213.863H1409.81ZM1412.16 210H1382.48C1381.67 210 1381 210.672 1381 211.484V223.717C1381 224.529 1381.67 225.201 1382.48 225.201H1412.16C1412.97 225.201 1413.64 224.529 1413.64 223.717V211.484C1413.64 210.672 1412.97 210 1412.16 210Z" fill="#E7F1F6"/>
<path d="M1543.81 258.863V266.366H1518.84V258.863H1543.81ZM1546.16 255H1516.48C1515.67 255 1515 255.672 1515 256.484V268.717C1515 269.529 1515.67 270.201 1516.48 270.201H1546.16C1546.97 270.201 1547.64 269.529 1547.64 268.717V256.484C1547.64 255.672 1546.97 255 1546.16 255Z" fill="#E7F1F6"/>
<path d="M1081.78 330.863V338.366H1056.84V330.863H1081.78ZM1084.16 327H1054.48C1053.67 327 1053 327.672 1053 328.484V340.717C1053 341.529 1053.67 342.201 1054.48 342.201H1084.16C1084.97 342.201 1085.64 341.529 1085.64 340.717V328.484C1085.64 327.672 1084.97 327 1084.16 327Z" fill="#E7F1F6"/>
<path d="M1200.81 115.863V123.366H1175.84V115.863H1200.81ZM1203.16 112H1173.48C1172.67 112 1172 112.672 1172 113.484V125.717C1172 126.529 1172.67 127.201 1173.48 127.201H1203.16C1203.97 127.201 1204.64 126.529 1204.64 125.717V113.512C1204.64 112.672 1204 112 1203.16 112Z" fill="#E7F1F6"/>
<path d="M815.806 374.863V382.366H790.835V374.863H815.806ZM818.157 371H788.484C787.672 371 787 371.672 787 372.484V384.717C787 385.529 787.672 386.201 788.484 386.201H818.157C818.969 386.201 819.641 385.529 819.641 384.717V372.512C819.641 371.672 818.997 371 818.157 371Z" fill="#E7F1F6"/>
<path d="M455.806 359.863V367.366H430.835V359.863H455.806ZM458.157 356H428.484C427.672 356 427 356.672 427 357.484V369.717C427 370.529 427.672 371.201 428.484 371.201H458.157C458.969 371.201 459.641 370.529 459.641 369.717V357.512C459.641 356.672 458.997 356 458.157 356Z" fill="#E7F1F6"/>
<path d="M1372.81 351.863V359.366H1347.84V351.863H1372.81ZM1375.16 348H1345.48C1344.67 348 1344 348.672 1344 349.484V361.717C1344 362.529 1344.67 363.201 1345.48 363.201H1375.16C1375.97 363.201 1376.64 362.529 1376.64 361.717V349.484C1376.64 348.672 1375.97 348 1375.16 348Z" fill="#E7F1F6"/>
<path d="M362.806 532.863V540.366H337.863V532.863H362.806ZM365.157 529H335.484C334.672 529 334 529.672 334 530.484V542.717C334 543.529 334.672 544.201 335.484 544.201H365.157C365.969 544.201 366.641 543.529 366.641 542.717V530.484C366.669 529.672 365.997 529 365.157 529Z" fill="#E7F1F6"/>
<path d="M28.7778 3.86316V11.3655H3.80718V3.86316H28.7778ZM31.1572 0H1.48368C0.671855 0 0 0.671851 0 1.48367V13.717C0 14.5288 0.671855 15.2007 1.48368 15.2007H31.1572C31.9691 15.2007 32.6409 14.5288 32.6409 13.717V1.48367C32.6409 0.671851 31.9691 0 31.1572 0Z" fill="#E7F1F6"/>
<path d="M1109.81 474.835V482.338H1084.84V474.835H1109.81ZM1112.16 471H1082.48C1081.67 471 1081 471.672 1081 472.484V484.717C1081 485.529 1081.67 486.201 1082.48 486.201H1112.16C1112.97 486.201 1113.64 485.529 1113.64 484.717V472.484C1113.67 471.644 1113 471 1112.16 471Z" fill="#E7F1F6"/>
<path d="M961.722 114.142V121.645H936.751V114.142H961.722V114.142ZM964.073 110.279H934.4C933.588 110.279 932.916 110.951 932.916 111.763V123.996C932.916 124.808 933.588 125.48 934.4 125.48H964.073C964.885 125.48 965.557 124.808 965.557 123.996V111.763C965.557 110.951 964.913 110.279 964.073 110.279Z" fill="#E7F1F6"/>
<path d="M506.806 79.8632V87.3655H481.835V79.8632H506.806ZM509.157 76H479.484C478.672 76 478 76.6719 478 77.4837V89.717C478 90.5288 478.672 91.2007 479.484 91.2007H509.157C509.969 91.2007 510.641 90.5288 510.641 89.717V77.4837C510.669 76.6719 509.997 76 509.157 76Z" fill="#E7F1F6"/>
<path d="M48.7441 256.306C26.2006 256.306 26.004 240.944 47.0341 240.592C64.6837 240.298 73.3709 255.072 84.5738 253.015C93.4576 251.388 80.4071 220.507 100.769 220.507C128.442 220.507 139.154 252.956 158.69 252.956C179.563 252.956 168.282 234.537 181.194 234.517C188.191 234.498 218.773 256.306 218.773 256.306C218.773 256.306 96.2682 256.306 48.7441 256.306Z" fill="white"/>
<path d="M224.1 212.63C224.1 212.63 153.993 212.63 147.055 212.63C140.117 212.63 132.766 201.853 138.466 200.619C148.391 198.463 159.241 209.319 165.903 209.319C169.893 209.319 160.616 191.86 173.844 191.194C187.071 190.547 224.1 212.63 224.1 212.63Z" fill="white"/>
<path opacity="0.6" d="M233.848 364.997V562.666H162.877V386.629L233.848 364.997Z" fill="#E7F1F6"/>
<path opacity="0.6" d="M176.143 378.87L220.562 365.35V357.316L176.143 339.916V378.87Z" fill="#E7F1F6"/>
<path d="M209.85 349.204L184.988 339.465V331.275L209.85 318.93V349.204Z" fill="url(#paint0_linear)"/>
<path opacity="0.6" d="M148 354H98V613H148V354Z" fill="#E7F1F6"/>
<path opacity="0.6" d="M92.809 384.062H21.5622V612.966H92.809V384.062Z" fill="#E7F1F6"/>
<path opacity="0.6" d="M149.472 307.389H120.266V323.614H149.472V307.389Z" fill="#E7F1F6"/>
<path opacity="0.6" d="M137.326 273.314H133.867V304.509H137.326V273.314Z" fill="#E7F1F6"/>
<path opacity="0.6" d="M111.952 326.709V350.321H152.814V577.695H157.668C157.668 577.225 157.668 327.434 157.668 326.709H111.952V326.709Z" fill="#E7F1F6"/>
<path opacity="0.6" d="M81.3702 367.623H33.001V356.787C33.001 356.787 45.7763 357.591 57.5885 347.48C72.5061 334.743 81.3702 352.104 81.3702 352.104V367.623Z" fill="#E7F1F6"/>
<path opacity="0.6" d="M26.4364 380.261H87.9347V371.581H26.4364V380.261Z" fill="#E7F1F6"/>
<path d="M237.602 298.787H18.0637V304.94H237.602V298.787Z" fill="#E7F1F6"/>
<path d="M237.425 444.473H18.5747C17.1399 444.473 16 443.101 16 441.396C16 439.691 17.1596 438.32 18.5747 438.32H237.425C238.86 438.32 240 439.691 240 441.396C240 443.101 238.86 444.473 237.425 444.473Z" fill="#E7F1F6"/>
<path d="M125.16 618.57V162.076C125.16 160.372 126.32 159 127.754 159C129.189 159 130.329 160.372 130.329 162.076V618.57H125.16V618.57Z" fill="#E7F1F6"/>
<path d="M234.202 165.741V613.847H21.287V165.741H234.202ZM239.371 159.588H16.1179V620H239.371V159.588Z" fill="#E7F1F7"/>
<path d="M623 780.195C623 780.195 562.106 810.695 401.707 794.033C340.736 787.71 114.137 805.487 67.5029 797.402C32.152 791.26 7.3338 779.832 37.6901 780.195C68.0464 780.558 623 780.195 623 780.195Z" fill="#E9F5F9"/>
<path d="M361.568 799.708C346.067 798.257 284.267 801.393 313.407 806.368C342.547 811.343 406.365 803.906 361.568 799.708Z" fill="#E9F5F9"/>
<path d="M261.856 442.403C269.49 458.936 272.466 468.472 275.287 469.638C277.72 470.649 294.438 460.983 322.284 453.183C322.982 452.976 328.469 460.983 328.469 460.983C328.469 460.931 294.722 510.505 266.747 508.276C238.15 505.996 223.477 462.072 223.477 462.072C223.477 462.072 252.72 445.331 261.856 442.403Z" fill="#F7B690"/>
<path d="M322.31 453.183C324.587 451.576 325.933 446.523 329.038 445.098C331.341 444.035 336.75 443.932 338.613 443.206C340.684 442.377 341.46 440.667 342.521 441.366C343.401 441.936 342.728 445.461 340.761 446.627C339.364 447.456 337.138 447.819 336.88 449.296C336.388 452.198 358.592 447.689 359.343 450.462C360.041 453.053 345.963 453.546 344.669 454.919C343.841 455.8 352.64 456.681 357.945 455.93C360.559 455.567 361.905 457.433 361.387 458.573C359.834 462.071 356.651 467.824 344.799 467.824C333.593 467.824 327.563 465 324.147 464.222C320.42 463.315 319.929 454.867 322.31 453.183Z" fill="#F7B690"/>
<path d="M332.48 456.966C332.221 456.966 331.988 456.811 331.911 456.552C331.807 456.241 331.988 455.904 332.299 455.8C334.706 455.049 336.414 451.68 336.388 449.762C336.388 449.425 336.647 449.192 336.983 449.192C337.319 449.192 337.578 449.425 337.578 449.736C337.604 452.069 335.689 456.008 332.635 456.966C332.609 456.992 332.558 456.966 332.48 456.966Z" fill="#EB9078"/>
<path d="M354.633 465.57C354.555 465.57 354.477 465.544 354.4 465.518C354.089 465.388 353.934 465.051 354.063 464.74C354.167 464.481 354.115 464.17 353.908 463.937C353.83 463.859 353.675 463.652 353.416 463.678C352.381 463.782 348.629 463.963 346.325 463.678C344.85 463.497 342.185 463.082 341.175 462.512C340.891 462.356 340.787 461.968 340.943 461.683C341.098 461.398 341.486 461.294 341.771 461.449C342.237 461.709 343.738 462.123 346.481 462.486C348.68 462.771 352.304 462.59 353.287 462.486C353.882 462.408 354.477 462.693 354.866 463.212C355.306 463.782 355.435 464.559 355.176 465.207C355.098 465.414 354.891 465.57 354.633 465.57Z" fill="#EB9078"/>
<path d="M359.11 462.046C359.032 462.046 358.98 462.046 358.903 462.02C358.592 461.916 358.437 461.553 358.54 461.242C358.644 460.957 358.566 460.802 358.463 460.698C357.997 460.18 356.496 459.947 355.616 460.154C354.063 460.491 345.549 460.284 343.091 459.428C342.78 459.325 342.599 458.962 342.728 458.651C342.832 458.34 343.194 458.159 343.505 458.288C345.678 459.04 353.986 459.273 355.383 458.988C356.522 458.755 358.54 458.936 359.394 459.921C359.809 460.413 359.912 461.035 359.679 461.683C359.602 461.89 359.369 462.046 359.11 462.046Z" fill="#EB9078"/>
<path d="M67.27 736.086C67.27 736.086 46.6184 749.043 48.9476 751.09C60.4897 761.301 78.7086 777.808 85.6184 783.898C87.5593 785.634 90.3025 782.213 88.5945 777.16C86.3948 770.63 79.1486 761.145 77.5699 753.889C75.8102 745.856 79.3556 740.388 79.3556 740.388L67.27 736.086Z" fill="#D57736"/>
<path d="M79.0709 758.217C79.2003 758.217 79.3297 758.191 79.4591 758.113C79.8214 757.906 79.9508 757.439 79.7438 757.077C76.9747 752.308 70.7378 750.987 67.2959 751.868C66.8818 751.972 66.6489 752.386 66.7524 752.801C66.8559 753.215 67.27 753.449 67.6841 753.345C70.5826 752.594 76.0689 753.786 78.424 757.854C78.5534 758.087 78.8121 758.217 79.0709 758.217Z" fill="#604737"/>
<path d="M83.8845 767.364C84.0139 767.364 84.1174 767.338 84.2468 767.261C84.6091 767.053 84.7385 766.613 84.5573 766.224C81.7106 760.964 76.8453 758.32 71.1519 758.968C70.7378 759.02 70.4273 759.383 70.479 759.797C70.5308 760.212 70.8931 760.523 71.3072 760.471C76.3536 759.901 80.7013 762.259 83.2116 766.924C83.341 767.209 83.5998 767.364 83.8845 767.364Z" fill="#604737"/>
<path d="M86.343 787.344C86.7053 787.344 87.0935 787.189 87.3523 786.878C87.844 786.308 87.7922 785.453 87.2488 784.96L48.9734 750.728C48.4041 750.235 47.5501 750.287 47.0584 750.831C46.5667 751.402 46.6184 752.257 47.1619 752.749L85.4372 787.007C85.696 787.241 86.0066 787.344 86.343 787.344Z" fill="#604737"/>
<path d="M270.888 765.835C270.888 765.835 267.135 787.007 270.241 787.007C273.424 787.007 316.59 787.007 323.396 787.007C332.739 782.161 294.852 772.262 283.982 761.689C280.618 761.56 270.888 765.835 270.888 765.835Z" fill="#D57736"/>
<path d="M291.565 776.745C291.901 776.745 292.212 776.512 292.29 776.175C292.678 774.62 294.127 771.588 297.233 770.241C297.621 770.085 297.802 769.619 297.621 769.256C297.465 768.867 297 768.686 296.637 768.867C292.988 770.448 291.28 773.998 290.815 775.838C290.711 776.253 290.97 776.641 291.384 776.745C291.436 776.745 291.487 776.745 291.565 776.745Z" fill="#604737"/>
<path d="M297.595 779.932C297.905 779.932 298.216 779.725 298.32 779.414C298.656 778.378 300.002 774.853 303.288 773.428C303.677 773.272 303.858 772.806 303.677 772.443C303.521 772.055 303.055 771.873 302.693 772.055C298.837 773.739 297.284 777.756 296.896 778.974C296.767 779.362 296.974 779.803 297.388 779.932C297.44 779.906 297.517 779.932 297.595 779.932Z" fill="#604737"/>
<path d="M269.128 789.443H325.104C325.855 789.443 326.476 788.977 326.476 788.225C326.476 787.474 325.855 787.007 325.104 787.007H269.128C268.377 787.007 267.756 787.474 267.756 788.225C267.756 788.977 268.377 789.443 269.128 789.443Z" fill="#604737"/>
<path d="M154.535 524.006C187.686 529.629 233.182 526.701 239.807 524.006C240.583 527.297 263.848 592.315 269.024 651.969C270.241 665.989 286.493 747.203 288.434 763.503C288.951 767.805 264.702 771.044 263.9 769.541C262.451 766.82 237.296 736.086 223.373 687.549C221.743 681.874 226.557 659.795 224.538 654.353C211.133 618.359 199.383 593.818 198.348 589.646C196.795 589.646 185.176 642.77 163.411 668.813C144.882 690.97 105.08 721.937 80.2614 749.095C77.6735 751.919 55.0809 736.475 55.0809 735.931C55.0809 732.562 76.0431 687.627 99.4379 665.237C107.564 657.437 125.524 654.379 125.524 654.379C125.524 654.379 140.612 573.45 142.035 563.136C144.39 546.059 152.387 529.448 154.535 524.006Z" fill="#3D3973"/>
<path d="M95.0643 555.362C95.0643 555.362 89.3709 558.16 88.051 556.917C86.7312 555.647 93.8221 552.563 95.5301 550.283C96.2547 549.298 96.7206 543.778 99.1532 539.606C100.447 537.377 102.414 537.17 102.932 535.952C105.959 528.904 98.0145 494.827 103.579 475.521C109.091 456.318 123.143 431.726 128.448 427.243C134.815 434.421 154.975 452.898 154.975 452.898C154.975 452.898 137.17 480.911 133.702 488.167C131.062 493.712 117.709 533.05 113.49 542.172C109.401 551.034 98.2992 573.994 96.4876 573.527C95.2972 573.217 96.7723 568.293 98.4027 562.773C94.3138 566.453 88.2839 570.081 87.5593 569.252C85.903 567.334 96.0477 559.327 96.0477 559.327C96.0477 559.327 87.1711 563.965 86.5759 562.073C85.9807 560.208 95.0643 555.362 95.0643 555.362Z" fill="#F7B690"/>
<path d="M134.659 407.626C149.178 394.41 179.12 386.299 195.139 387.569C211.236 386.273 243.3 399.645 250.391 408.844C264.573 427.243 270.008 451.369 268.972 453.546C267.679 456.293 249.408 465.596 240.091 466.399C238.668 506.436 246.483 539.788 244.879 542.12C242.032 546.188 157.381 552.2 148.22 541.161C144.959 537.248 153.241 496.589 154.586 459.195C153.551 459.065 151.274 464.663 150.161 464.404C137.894 461.527 114.163 446.782 112.973 444.243C111.912 442.066 116.441 424.211 134.659 407.626Z" fill="#90E2F5"/>
<path d="M177.024 382.282C177.024 382.282 181.242 377.877 196.226 377.877C209.192 377.877 212.892 382.282 212.892 382.282L195.45 405.216L177.024 382.282Z" fill="#56D1EE"/>
<path d="M207.509 371.476C210.046 370.673 212.685 361.37 214.238 357.431C216.438 351.833 219.492 345.173 217.68 336.311C217.059 333.279 214.238 327.293 205.491 326.023C197.287 324.831 187.634 329.521 184.166 336.233C176.61 340.379 180.983 351.471 181.527 357.768C182.303 366.578 189.213 370.725 192.758 369.895C200.626 368.056 201.324 373.446 207.509 371.476Z" fill="#222B54"/>
<path d="M184.891 357.068C185.409 373.835 181.967 385.133 181.268 388.528C180.673 391.378 192.396 404.491 196.537 404.491C196.537 404.491 213.798 392.752 212.219 389.927C209.813 385.599 207.458 372.928 210.175 360.826C212.892 348.724 191.749 364.428 184.891 357.068Z" fill="#F7B690"/>
<path d="M184.606 351.6C187.815 351.263 187.013 357.405 187.66 357.483C189.109 357.638 190.015 348.179 190.3 342.556C192.939 343.204 207.665 346.702 214.885 342.038C216.489 343.8 217.965 368.729 213.384 375.726C211.754 378.214 207.846 380.883 204.714 380.883C194.233 380.883 189.73 374.508 188.436 371.424C187.117 368.237 187.349 363.676 187.039 362.354C183.959 362.51 182.665 351.807 184.606 351.6Z" fill="#F7B690"/>
<path d="M177.024 382.282L168.587 391.378L196.174 405.216L177.024 382.282Z" fill="#90E2F5"/>
<path d="M212.866 382.282L220.164 391.87L196.174 404.465L212.866 382.282Z" fill="#90E2F5"/>
<path d="M197.002 405.683L186.547 395.421L179.87 402.832L168.277 391.274L169.208 390.342L179.819 400.966L186.496 393.555L197.908 404.75L197.002 405.683Z" fill="#56D1EE"/>
<path d="M202.774 431.907H198.038C197.08 431.907 196.278 431.13 196.278 430.145V404.646L202.696 395.835L209.243 401.355L219.31 391.404L220.216 392.337L209.295 403.117L202.903 397.727L197.546 405.06V430.145C197.546 430.404 197.753 430.612 198.012 430.612H202.748V431.907H202.774Z" fill="#56D1EE"/>
<path d="M201.402 410.269C200.082 410.269 198.995 409.181 198.995 407.859C198.995 406.538 200.082 405.449 201.402 405.449C202.722 405.449 203.809 406.538 203.809 407.859C203.783 409.181 202.722 410.269 201.402 410.269ZM201.402 406.745C200.807 406.745 200.289 407.237 200.289 407.859C200.289 408.455 200.781 408.974 201.402 408.974C202.023 408.974 202.515 408.481 202.515 407.859C202.489 407.263 201.997 406.745 201.402 406.745Z" fill="#56D1EE"/>
<path d="M201.402 418.536C200.082 418.536 198.995 417.447 198.995 416.126C198.995 414.804 200.082 413.716 201.402 413.716C202.722 413.716 203.809 414.804 203.809 416.126C203.783 417.447 202.722 418.536 201.402 418.536ZM201.402 415.037C200.807 415.037 200.289 415.53 200.289 416.152C200.289 416.748 200.781 417.266 201.402 417.266C202.023 417.266 202.515 416.774 202.515 416.152C202.489 415.53 201.997 415.037 201.402 415.037Z" fill="#56D1EE"/>
<path d="M201.402 426.491C200.082 426.491 198.995 425.403 198.995 424.081C198.995 422.76 200.082 421.671 201.402 421.671C202.722 421.671 203.809 422.76 203.809 424.081C203.783 425.429 202.722 426.491 201.402 426.491ZM201.402 422.993C200.807 422.993 200.289 423.485 200.289 424.107C200.289 424.703 200.781 425.222 201.402 425.222C202.023 425.222 202.515 424.729 202.515 424.107C202.489 423.485 201.997 422.993 201.402 422.993Z" fill="#56D1EE"/>
<path d="M204.326 381.246C199.306 381.246 195.243 379.717 192.215 376.685C186.703 371.165 186.651 362.691 186.651 362.329C186.651 362.121 186.832 361.94 187.039 361.94C187.246 361.94 187.427 362.121 187.427 362.329C187.427 362.406 187.479 370.828 192.758 376.141C195.631 379.017 199.513 380.468 204.326 380.468C206.448 380.468 207.82 380.209 208.855 379.639C209.036 379.536 209.269 379.613 209.373 379.795C209.476 379.976 209.399 380.209 209.217 380.313C208.079 380.987 206.604 381.246 204.326 381.246Z" fill="#DE8675"/>
<path d="M204.947 334.264C216.179 331.75 227.669 338.436 228.886 339.706C229.248 340.094 229.688 341.183 228.316 340.82C225.987 340.198 222.623 338.591 219.103 339.032C214.73 339.576 210.046 341.649 207.613 342.297C201.738 343.826 189.756 340.431 189.756 340.431L204.947 334.264Z" fill="#90E2F5"/>
<path d="M217.111 334.549C217.085 330.662 213.177 323.276 208.648 320.762C204.792 318.611 198.012 318.534 192.965 320.089C186.728 322.006 180.906 341.519 190.119 340.431C190.999 340.302 207.535 332.398 217.111 334.549Z" fill="#90E2F5"/>
<path d="M179.456 344.448C179.793 344.836 188.126 341.208 189.886 340.327C190.041 340.25 190.119 340.068 190.041 339.887C188.126 335.792 185.823 324.131 192.965 320.037C187.143 321.203 182.329 323.82 180.129 327.215C175.756 333.978 178.473 343.256 179.456 344.448Z" fill="#56D1EE"/>
<path d="M241.308 466.036L240.014 465.881C241.411 454.116 241.075 443.543 241.075 443.439L242.369 443.387C242.369 443.491 242.705 454.167 241.308 466.036Z" fill="#56D1EE"/>
<path d="M164.223 439.89L153.898 458.633L155.031 459.258L165.356 440.516L164.223 439.89Z" fill="#56D1EE"/>
<path d="M351.708 437.297H260.018V451.093H351.708V437.297Z" fill="#DCDEC9"/>
<path d="M403.078 437.297H350.991V451.093H403.078V437.297Z" fill="#CACCB9"/>
<path d="M347.69 423.646H256V437.441H347.69V423.646Z" fill="#EAECD8"/>
<path d="M398.917 423.646H346.829V437.441H398.917V423.646Z" fill="#DADCC9"/>
<path d="M351.565 411H259.874V424.795H351.565V411Z" fill="#DCDEC9"/>
<path d="M402.791 411H350.704V424.795H402.791V411Z" fill="#CACCB9"/>
<path d="M472.202 659.329C474.117 668.839 478.594 692.706 475.721 742.694C486.901 746.607 495.493 745.052 495.7 745.026C502.946 728.986 511.15 707.244 512.159 686.746C512.625 677.339 500.126 656.375 500.721 648.574C501.031 644.35 504.033 626.366 504.473 622.401C508.148 635.98 509.675 647.227 513.634 653.809C520.13 664.641 542.464 695.323 552.013 747.281C558.949 747.799 568.007 746.918 570.569 746.633C572.329 723.129 572.976 688.352 566.35 672.934C562.054 662.931 546.993 649.404 545.595 643.521C542.257 629.554 545.337 566.401 542.723 548.728C538.142 517.761 529.033 492.08 529.033 492.08C529.033 492.08 486.151 493.142 481.907 489.644C477.818 486.249 467.078 533.179 466.793 547.328C466.405 567.023 464.49 621.002 472.202 659.329Z" fill="#0A3C5F"/>
<path d="M505.586 621.779C505.534 621.779 505.482 621.779 505.431 621.754C505.017 621.676 504.732 621.261 504.835 620.847C506.181 614.316 510.374 601.929 514.799 588.843C519.845 573.89 525.073 558.42 525.72 552.511C525.772 552.097 526.16 551.786 526.574 551.812C526.988 551.863 527.299 552.252 527.273 552.667C526.6 558.757 521.372 574.305 516.3 589.335C512.082 601.826 507.734 614.731 506.388 621.158C506.259 621.546 505.948 621.779 505.586 621.779Z" fill="#222B54"/>
<path d="M469.459 444.268C468.346 436.391 485.271 410.606 487.936 406.667C490.68 402.625 497.227 394.436 505.25 394.436C518.396 394.436 528.722 395.706 532.656 403.48C547.433 432.685 534.778 452.379 535.658 492.183C537.366 519.834 558.845 582.027 531.776 584.463C490.654 588.169 481.932 538.829 481.932 538.829C481.932 538.829 473.004 584.282 466.275 584.463C459.547 584.645 473.548 488.374 473.548 488.374C473.056 477.723 471.141 456.189 469.459 444.268Z" fill="#FFBF34"/>
<path d="M440.448 788.976C445.443 788.899 482.372 788.614 484.702 788.588C486.875 788.562 484.288 770.888 484.003 769.1C480.199 768.789 475.696 767.934 473.755 767.079C463.196 776.926 433.642 785.141 440.448 788.976Z" fill="#FFBF34"/>
<path d="M470.856 778.378C470.908 778.378 470.985 778.378 471.037 778.352C471.477 778.248 471.762 777.808 471.632 777.367C471.218 775.683 468.786 772.962 466.12 771.796C465.706 771.614 465.214 771.796 465.033 772.21C464.852 772.625 465.033 773.117 465.447 773.299C467.699 774.283 469.743 776.641 470.002 777.756C470.131 778.119 470.468 778.378 470.856 778.378Z" fill="white"/>
<path d="M465.887 780.995C465.965 780.995 466.068 780.995 466.146 780.943C466.586 780.814 466.819 780.347 466.664 779.907C466.146 778.326 463.817 775.449 461.177 774.283C460.763 774.102 460.272 774.283 460.09 774.698C459.909 775.113 460.09 775.605 460.504 775.786C462.73 776.745 464.749 779.311 465.085 780.399C465.214 780.788 465.525 780.995 465.887 780.995Z" fill="white"/>
<path d="M524.297 788.821C529.265 788.743 566.221 788.458 568.55 788.432C570.62 788.407 568.343 772.262 567.903 769.282C564.021 769.645 557.422 769.826 554.938 769.101C542.852 777.989 518.008 785.271 524.297 788.821Z" fill="#FFBF34"/>
<path d="M554.705 778.222C554.756 778.222 554.834 778.222 554.886 778.196C555.326 778.093 555.61 777.652 555.481 777.211C555.067 775.527 552.634 772.806 549.969 771.64C549.555 771.459 549.063 771.64 548.882 772.055C548.701 772.469 548.882 772.962 549.296 773.143C551.547 774.128 553.592 776.486 553.851 777.6C553.98 777.963 554.316 778.222 554.705 778.222Z" fill="white"/>
<path d="M549.736 780.865C549.814 780.865 549.917 780.865 549.995 780.814C550.435 780.684 550.668 780.218 550.512 779.777C549.995 778.196 547.666 775.32 545.026 774.154C544.612 773.972 544.12 774.154 543.939 774.568C543.758 774.983 543.939 775.475 544.353 775.657C546.579 776.616 548.597 779.181 548.934 780.269C549.063 780.632 549.374 780.865 549.736 780.865Z" fill="white"/>
<path d="M515.627 397.338C515.265 394.229 511.564 376.633 511.901 361.292C510.529 352.689 491.637 344.655 483.873 347.791C482.993 349.812 482.191 353.44 482.062 354.969C481.311 363.909 484.287 378.421 486.539 380.753C488.169 382.438 494.587 381.479 497.227 381.038C498.987 386.74 497.952 394.255 496.684 397.364C494.846 401.822 516.119 401.562 515.627 397.338Z" fill="#BC7551"/>
<path d="M521.217 338.695C514.074 331.465 498.185 329.081 491.508 339.887C491.197 340.405 479.474 338.721 479.267 352.118C479.215 355.98 488.143 352.377 493.966 355.565C504.629 361.421 502.817 361.111 498.443 367.848C490.395 380.209 487.911 394.436 492.439 398.453C500.1 405.216 505.198 400.241 507.113 410.243C509.08 420.454 512.133 432.53 516.585 434.758C529.809 441.418 543.758 437.894 547.459 432.685C555.766 420.946 541.584 417.862 552.013 405.734C559.285 397.286 546.294 392 543.033 384.148C540.368 377.747 548.701 375.493 543.007 367.278C537.702 359.607 531.621 361.732 528.722 358.441C525.72 355.021 528.877 346.469 521.217 338.695Z" fill="#082D47"/>
<path d="M482.191 356.394C482.191 356.394 482.243 363.624 479.5 367.459C478.025 369.507 484.365 370.439 484.365 370.439L482.191 356.394Z" fill="#BC7551"/>
<path d="M479.215 354.14C479.215 354.14 493.966 353.699 493.449 362.018C493.138 367.019 495.286 356.368 501.445 360.022C507.527 363.624 478.827 337.736 479.215 354.14Z" fill="#082D47"/>
<path d="M424.61 472.515C438.015 476.558 454.19 478.346 460.401 477.283C468.216 475.961 492.621 462.823 502.196 446.471L493.656 399.308C478.879 404.309 461.902 447.352 455.872 451.084C453.646 452.457 437.705 451.24 425.412 453.572L424.765 471.686C424.765 471.971 424.688 472.256 424.61 472.515Z" fill="#FFC834"/>
<path d="M383.747 455.489C391.381 460.128 402.716 465.077 414.362 469.172C417.778 470.364 421.22 471.504 424.61 472.515C424.688 472.256 424.765 471.997 424.791 471.711L426.111 455.386C422.566 454.816 418.891 454.22 415.319 453.623C402.147 451.473 390.294 449.503 390.294 449.503L383.747 455.489Z" fill="#BC7551"/>
<path d="M417.053 473.577L421.142 474.536C422.773 474.925 424.377 473.992 424.895 472.515C424.972 472.256 425.05 471.996 425.076 471.711L426.396 455.386L426.473 454.453C426.629 452.665 425.257 451.11 423.471 451.006L418.994 450.747C417.286 450.643 415.785 451.939 415.63 453.623C415.63 453.649 415.63 453.701 415.63 453.727L414.672 469.172L414.595 470.286C414.491 471.815 415.552 473.214 417.053 473.577Z" fill="#F6AA33"/>
<path d="M472.797 473.526L471.969 472.204C496.321 456.941 506.569 438.956 506.673 438.775L508.019 439.526C507.941 439.734 497.486 458.055 472.797 473.526Z" fill="#F3A308"/>
<path d="M552.013 747.281C553.307 754.33 554.368 761.793 555.119 769.645L567.256 770.189C567.8 770.111 569.145 760.523 570.569 746.633C568.007 746.918 558.975 747.799 552.013 747.281Z" fill="#BC7551"/>
<path d="M473.884 767.131C474.712 767.416 479.448 769.049 483.226 769.826C483.718 769.671 484.106 769.386 484.287 768.945C484.805 766.872 489.955 757.75 495.7 745C495.493 745.052 486.901 746.581 475.721 742.668C475.307 750.209 474.686 758.346 473.884 767.131Z" fill="#BC7551"/>
<path d="M391.717 449.4C389.777 448.026 388.638 443.724 385.998 442.532C384.031 441.625 379.451 441.548 377.872 440.926C376.112 440.226 375.465 438.775 374.56 439.371C373.809 439.863 374.378 442.869 376.061 443.854C377.251 444.554 379.14 444.865 379.347 446.109C379.761 448.57 360.895 444.735 360.248 447.093C359.653 449.296 371.609 449.711 372.722 450.877C373.421 451.628 365.942 451.784 361.439 451.162C359.213 450.851 357.971 452.483 358.514 453.416C360.248 456.319 365.347 460.931 372.929 460.957C382.453 460.983 386.464 458.029 390.165 458.806C393.322 459.428 393.736 450.851 391.717 449.4Z" fill="#BC7551"/>
<path d="M1520 790.454C1520 793.523 1317.77 796 1101.53 796C885.284 796 704.552 793.523 704.552 790.454C704.552 787.385 885.257 784.908 1101.5 784.908C1317.75 784.908 1520 787.385 1520 790.454Z" fill="#E9F5F9"/>
<path d="M1356.16 764.879C1358.88 764.879 1361.11 762.671 1361.11 759.925V675.311C1361.11 672.592 1358.91 670.357 1356.16 670.357C1353.42 670.357 1351.21 672.565 1351.21 675.311V759.925C1351.21 762.671 1353.45 764.879 1356.16 764.879Z" fill="#B5D7FF"/>
<path d="M1413.3 785.393C1415.35 785.393 1417.02 783.724 1417.02 781.678V772.524C1417.02 765.794 1411.1 760.329 1403.81 760.329H1308.54C1301.25 760.329 1295.34 765.794 1295.34 772.524V780.574C1295.34 782.62 1297 784.289 1299.05 784.289C1301.09 784.289 1302.76 782.62 1302.76 780.574V772.524C1302.76 769.886 1305.37 767.759 1308.54 767.759H1403.81C1407.01 767.759 1409.59 769.913 1409.59 772.524V781.678C1409.59 783.724 1411.26 785.393 1413.3 785.393Z" fill="#B5D7FF"/>
<path d="M1423.23 780.412C1423.23 780.547 1423.23 780.655 1423.23 780.789C1423.04 785.15 1419.44 788.65 1415 788.65C1410.45 788.65 1406.77 784.962 1406.77 780.412C1406.77 779.658 1406.87 778.932 1407.06 778.258C1408 774.759 1411.21 772.201 1415 772.201C1419.55 772.201 1423.23 775.862 1423.23 780.412Z" fill="#B5D7FF"/>
<path d="M1303.51 780.412C1303.51 784.962 1299.83 788.65 1295.28 788.65C1290.74 788.65 1287.05 784.962 1287.05 780.412C1287.05 780.305 1287.05 780.197 1287.05 780.089C1287.24 775.701 1290.84 772.201 1295.28 772.201C1299.21 772.201 1302.46 774.947 1303.3 778.608C1303.43 779.174 1303.51 779.793 1303.51 780.412Z" fill="#B5D7FF"/>
<path d="M1369.78 634.848H1406.44C1412.71 634.848 1418.01 630.217 1418.87 624.025L1431.52 532.923C1432.57 525.385 1426.7 518.628 1419.09 518.628H1374C1367.3 518.628 1361.79 523.905 1361.46 530.608L1357.24 621.71C1356.92 628.871 1362.62 634.848 1369.78 634.848Z" fill="#7BA9D8"/>
<path d="M1301.5 682.741H1410.86C1414.94 682.741 1418.28 679.43 1418.28 675.311C1418.28 671.192 1414.97 667.881 1410.86 667.881H1301.5C1297.41 667.881 1294.07 671.192 1294.07 675.311C1294.07 679.43 1297.38 682.741 1301.5 682.741Z" fill="#7BA9D8"/>
<path d="M1385.67 780.412C1385.67 784.962 1381.99 788.65 1377.44 788.65C1372.98 788.65 1369.34 785.096 1369.21 780.681C1369.21 780.6 1369.21 780.493 1369.21 780.412C1369.21 775.862 1372.9 772.174 1377.44 772.174C1381.05 772.174 1384.11 774.489 1385.22 777.72C1385.54 778.581 1385.67 779.47 1385.67 780.412Z" fill="#B5D7FF"/>
<path d="M1377.44 781.489C1379.49 781.489 1381.16 779.82 1381.16 777.774V764.044C1381.16 761.998 1379.49 760.329 1377.44 760.329C1375.4 760.329 1373.73 761.998 1373.73 764.044V777.774C1373.76 779.82 1375.4 781.489 1377.44 781.489Z" fill="#B5D7FF"/>
<path d="M1345.51 780.413C1345.51 784.962 1341.82 788.65 1337.28 788.65C1332.92 788.65 1329.34 785.231 1329.07 780.924C1329.07 780.763 1329.04 780.574 1329.04 780.413C1329.04 775.863 1332.73 772.175 1337.28 772.175C1341.02 772.175 1344.19 774.678 1345.19 778.097C1345.4 778.851 1345.51 779.632 1345.51 780.413Z" fill="#B5D7FF"/>
<path d="M1337.28 782.97C1339.32 782.97 1340.99 781.301 1340.99 779.255V764.017C1340.99 761.971 1339.32 760.302 1337.28 760.302C1335.23 760.302 1333.56 761.971 1333.56 764.017V779.228C1333.56 781.301 1335.23 782.97 1337.28 782.97Z" fill="#B5D7FF"/>
<path d="M1345.51 780.412C1345.51 784.962 1341.82 788.65 1337.28 788.65C1332.92 788.65 1329.34 785.231 1329.07 780.924L1345.19 778.097C1345.4 778.851 1345.51 779.632 1345.51 780.412Z" fill="#729DD8"/>
<path d="M1385.67 780.412C1385.67 784.962 1381.99 788.65 1377.44 788.65C1372.98 788.65 1369.34 785.097 1369.21 780.682L1385.22 777.72C1385.54 778.582 1385.67 779.47 1385.67 780.412Z" fill="#729DD8"/>
<path d="M1423.23 780.789C1423.04 785.15 1419.44 788.65 1415 788.65C1410.45 788.65 1406.77 784.962 1406.77 780.412C1406.77 779.658 1406.87 778.932 1407.06 778.259L1423.23 780.789Z" fill="#729DD8"/>
<path d="M1303.51 780.412C1303.51 784.962 1299.83 788.65 1295.28 788.65C1290.74 788.65 1287.05 784.962 1287.05 780.412C1287.05 780.305 1287.05 780.197 1287.05 780.089L1303.3 778.582C1303.43 779.174 1303.51 779.793 1303.51 780.412Z" fill="#729DD8"/>
<path d="M1382.23 690.737H1328.86C1326.95 690.737 1325.41 689.202 1325.41 687.291V682.58H1385.67V687.291C1385.67 689.175 1384.14 690.737 1382.23 690.737Z" fill="#729DD8"/>
<path d="M1363.18 754.352V726.031C1363.18 724.281 1361.76 722.854 1360.01 722.854H1352.18C1350.43 722.854 1349.01 724.281 1349.01 726.031V754.352C1349.01 756.102 1347.58 757.529 1345.83 757.529H1331.9C1330.15 757.529 1328.72 758.956 1328.72 760.706V766.574C1328.72 768.324 1330.15 769.751 1331.9 769.751H1381.69C1383.44 769.751 1384.87 768.324 1384.87 766.574V760.706C1384.87 758.956 1383.44 757.529 1381.69 757.529H1366.36C1364.61 757.529 1363.18 756.102 1363.18 754.352Z" fill="#729DD8"/>
<path d="M1363.02 687.722C1363.02 687.722 1363 688.395 1362.97 689.606C1362.94 690.199 1362.94 690.925 1362.92 691.76C1362.92 691.868 1362.92 691.975 1362.92 692.083V692.245V692.325V692.379V692.406V692.514V692.675V692.729V692.81L1362.94 692.998C1362.94 693.052 1362.97 693.133 1362.97 693.187L1363 693.348C1363.02 693.456 1363.05 693.537 1363.08 693.645C1363.32 694.425 1363.86 695.179 1364.64 695.664C1365.01 695.906 1365.47 696.094 1365.93 696.175C1366.04 696.202 1366.17 696.202 1366.28 696.229L1366.52 696.256C1366.65 696.256 1366.79 696.283 1366.92 696.283C1367.49 696.337 1368.05 696.391 1368.62 696.444C1369.8 696.552 1371.04 696.66 1372.3 696.768C1374.86 696.983 1377.58 697.225 1380.32 697.467C1391.24 698.437 1402.14 699.406 1402.14 699.406C1403.57 699.54 1404.83 698.464 1404.96 697.037C1405.1 695.61 1404.02 694.345 1402.6 694.21C1402.54 694.21 1402.52 694.21 1402.46 694.21C1402.46 694.21 1391.51 693.806 1380.56 693.375C1377.82 693.268 1375.1 693.16 1372.52 693.079C1371.23 693.025 1369.99 692.972 1368.83 692.945C1368.24 692.918 1367.68 692.891 1367.11 692.891C1366.98 692.891 1366.84 692.891 1366.71 692.864H1366.6H1366.55H1366.52C1366.49 692.864 1366.49 692.864 1366.47 692.864C1366.41 692.864 1366.36 692.837 1366.3 692.837C1366.2 692.783 1366.12 692.702 1366.06 692.595C1366.06 692.595 1366.06 692.568 1366.04 692.568V692.541V692.514V692.352C1366.04 692.164 1366.04 691.975 1366.01 691.787C1365.98 690.952 1365.98 690.226 1365.96 689.633C1365.93 688.422 1365.9 687.749 1365.9 687.749C1365.87 686.941 1365.2 686.268 1364.37 686.295C1363.67 686.295 1363.02 686.941 1363.02 687.722Z" fill="#729DD8"/>
<path d="M1207.71 764.313C1207.71 764.313 1209.65 786.281 1207.18 786.47C1193.56 787.385 1193.86 782.862 1184.98 780.062C1177.31 777.639 1172.66 777.909 1169.97 776.67C1164.37 774.113 1159.91 771.367 1159.29 770.209C1156.97 766.036 1171.82 764.959 1173.98 765.875C1176.13 766.79 1195.53 759.898 1195.53 759.898L1207.71 764.313Z" fill="#C97B44"/>
<path d="M1415.89 561.918C1419.22 579.309 1425.11 604.804 1418.77 607.496C1409.7 611.345 1368.48 584.505 1368.48 584.505C1368.48 584.505 1386.54 582.539 1387.32 580.655C1387.53 580.09 1386.83 575.836 1385.7 570.129C1383.07 556.776 1412.34 543.342 1415.89 561.918Z" fill="#F7B690"/>
<path d="M1229.88 623.999C1235.99 618.372 1306.34 616.542 1313.47 614.792C1320.6 613.015 1355.81 623.891 1355.81 623.891C1364.04 636.006 1373.89 654.797 1372.12 662.873C1371.01 667.962 1299.16 663.681 1260.5 663.385C1260.63 663.546 1263.08 687.48 1257.56 699.81C1252.02 712.194 1226.49 754.891 1214.44 766.979C1213.31 768.136 1195.53 759.845 1195.53 759.845C1195.53 759.845 1220.47 632.694 1229.88 623.999Z" fill="#422A4F"/>
<path d="M1270.24 642.548C1276.67 636.356 1329.04 625.83 1343.76 623.891C1351.05 622.922 1386.11 623.891 1386.11 623.891C1394.34 636.006 1396.36 656.305 1394.58 664.408C1393.26 670.492 1335.37 668.715 1302.81 668.096C1306.9 674.288 1311.64 685.676 1312.53 692.272C1314.41 706.298 1301.01 764.637 1301.01 764.637H1280.05C1280.08 764.61 1261.84 650.624 1270.24 642.548Z" fill="#422A4F"/>
<path d="M1408.11 519.193C1416.77 531.227 1425.87 568.433 1425.06 572.04C1423.1 581.113 1388.8 581.059 1388.8 581.059C1388.8 581.059 1398.56 654.851 1397.57 658.054C1396.57 661.258 1377.44 631.267 1350.06 625.722C1338.11 623.299 1312.39 617.511 1307.76 618.722C1303.14 619.934 1305.99 577.532 1305.99 577.532C1305.99 577.532 1283.9 579.417 1280.35 575.486C1276.21 570.91 1292.67 520.055 1301.31 512.975C1310.08 505.76 1339.35 498.168 1339.35 498.168H1365.31C1365.31 498.195 1398.53 505.867 1408.11 519.193Z" fill="#A0AD58"/>
<path d="M1292.97 764.61C1293.16 768.244 1293.72 770.236 1294.99 773.897C1295.36 775.028 1303.24 788.65 1299.91 788.65C1293.8 788.65 1273.22 788.65 1268.03 788.65C1264.37 788.65 1269.02 782.378 1272.39 780.412C1275.51 778.582 1280.08 764.61 1280.08 764.61C1280.08 764.61 1284.25 759.521 1292.97 764.61Z" fill="#C97B44"/>
<path d="M1389.06 579.121C1389.17 579.121 1389.28 579.094 1389.39 579.067C1389.82 578.878 1390.03 578.394 1389.87 577.936C1388.66 574.975 1385.08 554.299 1385.97 545.011C1386.02 544.527 1385.67 544.123 1385.19 544.069C1384.71 544.015 1384.3 544.365 1384.25 544.85C1383.36 554.138 1386.8 575.002 1388.28 578.609C1388.42 578.932 1388.74 579.121 1389.06 579.121Z" fill="#869E55"/>
<path d="M1345.05 595.274C1354.14 592.797 1382.31 580.655 1390.28 580.655C1406.79 580.655 1419.28 597.05 1420.59 604.292C1422.64 615.357 1344.46 607.819 1344.46 607.819L1345.05 595.274Z" fill="#F7B690"/>
<path d="M1326.06 441.875C1324.85 443.598 1326.33 446.479 1329.91 447.125C1324.52 448.632 1322.26 450.274 1322.64 452.59C1323.1 455.363 1325.41 455.524 1328.43 455.093C1326.27 470.062 1337.12 486.161 1341.39 474.235C1344.08 466.697 1355.54 480.777 1355.76 481.88C1356.54 486.161 1364.58 465.243 1364.07 453.263C1363.7 444.863 1350.41 436.545 1343.57 438.268C1341.93 438.671 1342.44 441.579 1344.43 443.329C1335.07 438.483 1327.32 440.098 1326.06 441.875Z" fill="#222B54"/>
<path d="M1366.22 494.722C1366.22 494.722 1362.24 490.576 1348.09 490.576C1335.85 490.576 1332.35 494.722 1332.35 494.722L1340.18 505.006C1344.59 510.794 1353.23 510.901 1357.78 505.248L1366.22 494.722Z" fill="#869E55"/>
<path d="M1358.77 470.896C1358.29 486.726 1361.54 497.387 1362.22 500.591L1358.5 504.467C1352.66 510.579 1342.9 510.579 1337.06 504.467L1332.97 500.187C1335.23 496.122 1337.46 485.892 1334.91 474.477C1332.33 463.035 1352.32 477.869 1358.77 470.896Z" fill="#F7B690"/>
<path d="M1359.07 465.754C1356.03 465.458 1356.78 471.219 1356.19 471.3C1354.82 471.435 1353.96 462.524 1353.69 457.22C1351.19 457.813 1337.98 459.966 1330.47 456.709C1328.96 458.378 1327.56 481.907 1331.9 488.503C1333.46 490.872 1337.12 493.376 1340.07 493.376C1349.97 493.376 1354.23 487.345 1355.44 484.438C1356.7 481.45 1356.46 477.142 1356.75 475.877C1359.66 476.065 1360.87 465.943 1359.07 465.754Z" fill="#F7B690"/>
<path d="M1355.97 486.08C1352.72 494.103 1341.58 495.341 1334.75 493.376C1329.07 491.734 1326.19 485.838 1329.04 478.407C1329.26 477.815 1329.02 476.846 1329.21 476.981C1333.43 479.996 1344.59 480.427 1351.21 476.092C1355.54 473.265 1354.87 469.362 1354.47 465.97C1354.06 462.578 1357.62 463.897 1356.89 467.585C1356.19 471.3 1357.7 481.827 1355.97 486.08Z" fill="#222B54"/>
<path d="M1366.22 494.722L1373.43 501.506L1360.41 515.344L1348.5 509.044L1366.22 494.722Z" fill="#A0AD58"/>
<path d="M1332.35 494.722L1325.47 503.767L1335.69 513.809L1348.17 509.098L1332.35 494.722Z" fill="#A0AD58"/>
<path d="M1360.6 516.205L1347.85 510.013L1348.44 508.802L1360.2 514.509L1371.42 499.837L1372.49 500.645L1360.6 516.205Z" fill="#869E55"/>
<path d="M1348.5 535.589H1341.8V534.243H1347.15V510.713L1335.55 514.321L1325.39 503.418L1326.38 502.502L1335.96 512.786L1348.5 508.883V535.589Z" fill="#869E55"/>
<path d="M1348.28 472.538H1345.16C1343.49 472.538 1342.09 471.354 1341.8 469.685L1341.07 465.189C1340.96 464.57 1341.37 463.977 1341.98 463.87L1342.28 463.816C1343.73 463.52 1345.21 463.358 1346.69 463.358H1346.88C1348.55 463.358 1350.22 463.574 1351.83 463.977C1352.45 464.139 1352.83 464.758 1352.67 465.377L1351.59 469.954C1351.24 471.462 1349.87 472.538 1348.28 472.538ZM1342.42 465.135L1343.14 469.469C1343.3 470.465 1344.16 471.192 1345.16 471.192H1348.28C1349.25 471.192 1350.06 470.546 1350.27 469.604L1351.32 465.216C1349.87 464.866 1348.36 464.677 1346.88 464.677H1346.69C1345.29 464.677 1343.92 464.812 1342.55 465.108L1342.42 465.135Z" fill="white"/>
<path d="M1334.24 472.539H1331.12C1329.53 472.539 1328.18 471.462 1327.81 469.927L1326.73 465.351C1326.6 464.731 1326.97 464.112 1327.56 463.951C1329.18 463.547 1330.85 463.332 1332.51 463.332H1332.7C1334.18 463.332 1335.66 463.493 1337.12 463.789L1337.41 463.843C1338.03 463.978 1338.43 464.543 1338.33 465.162L1337.57 469.685C1337.3 471.327 1335.9 472.539 1334.24 472.539ZM1328.05 465.216L1329.1 469.604C1329.31 470.547 1330.15 471.193 1331.09 471.193H1334.21C1335.21 471.193 1336.07 470.466 1336.23 469.47L1336.95 465.135L1336.82 465.108C1335.45 464.812 1334.08 464.678 1332.68 464.678H1332.49C1331.01 464.678 1329.5 464.866 1328.05 465.216Z" fill="white"/>
<path d="M1341.72 465.108H1337.55V466.454H1341.72V465.108Z" fill="white"/>
<path d="M1359.85 468.231C1359.07 466.616 1358.1 465.889 1356.65 465.889H1352.02V464.543H1356.65C1358.61 464.543 1360.04 465.566 1361.06 467.666L1359.85 468.231Z" fill="white"/>
<path d="M1343.68 519.032C1342.41 519.032 1341.39 518.009 1341.39 516.743C1341.39 515.478 1342.41 514.455 1343.68 514.455C1344.94 514.455 1345.97 515.478 1345.97 516.743C1345.97 518.009 1344.94 519.032 1343.68 519.032ZM1343.68 515.828C1343.17 515.828 1342.74 516.259 1342.74 516.77C1342.74 517.282 1343.17 517.713 1343.68 517.713C1344.19 517.713 1344.62 517.282 1344.62 516.77C1344.62 516.232 1344.19 515.828 1343.68 515.828Z" fill="#869E55"/>
<path d="M1343.68 524.981C1342.41 524.981 1341.39 523.958 1341.39 522.693C1341.39 521.428 1342.41 520.405 1343.68 520.405C1344.94 520.405 1345.97 521.428 1345.97 522.693C1345.97 523.958 1344.94 524.981 1343.68 524.981ZM1343.68 521.778C1343.17 521.778 1342.74 522.208 1342.74 522.72C1342.74 523.231 1343.17 523.662 1343.68 523.662C1344.19 523.662 1344.62 523.231 1344.62 522.72C1344.62 522.181 1344.19 521.778 1343.68 521.778Z" fill="#869E55"/>
<path d="M1343.68 530.931C1342.41 530.931 1341.39 529.908 1341.39 528.643C1341.39 527.378 1342.41 526.354 1343.68 526.354C1344.94 526.354 1345.97 527.378 1345.97 528.643C1345.97 529.908 1344.94 530.931 1343.68 530.931ZM1343.68 527.727C1343.17 527.727 1342.74 528.158 1342.74 528.67C1342.74 529.181 1343.17 529.612 1343.68 529.612C1344.19 529.612 1344.62 529.181 1344.62 528.67C1344.62 528.158 1344.19 527.727 1343.68 527.727Z" fill="#869E55"/>
<path d="M1266.66 663.95C1266.63 663.654 1266.25 656.87 1266.95 649.413C1267.92 639.048 1270.5 632.721 1274.59 630.621C1288.42 623.568 1323.13 622.437 1324.58 622.41L1324.66 625.103C1324.58 625.103 1315.65 625.399 1305.18 626.502C1291.43 627.983 1281.27 630.245 1275.8 633.017C1272.68 634.606 1270.48 640.529 1269.62 649.655C1268.94 656.924 1269.32 663.708 1269.32 663.789L1266.66 663.95Z" fill="#31203B"/>
<path d="M1181.35 770.182C1181.08 770.182 1180.84 770.021 1180.73 769.751C1179.47 766.575 1175.81 765.875 1175.75 765.875C1175.38 765.821 1175.13 765.471 1175.21 765.094C1175.27 764.717 1175.62 764.475 1175.99 764.556C1176.18 764.582 1180.43 765.39 1181.97 769.267C1182.1 769.617 1181.94 769.994 1181.59 770.128C1181.51 770.182 1181.43 770.182 1181.35 770.182Z" fill="white"/>
<path d="M1187.27 767.759C1187 767.759 1186.76 767.598 1186.65 767.329C1185.38 764.152 1181.73 763.452 1181.67 763.452C1181.29 763.398 1181.05 763.048 1181.13 762.671C1181.19 762.294 1181.54 762.052 1181.91 762.133C1182.1 762.16 1186.35 762.967 1187.89 766.844C1188.02 767.194 1187.86 767.571 1187.51 767.705C1187.43 767.759 1187.35 767.759 1187.27 767.759Z" fill="white"/>
<path d="M1288.42 777.451C1288.37 777.451 1288.29 777.451 1288.23 777.424C1283.74 776.051 1280.24 776.105 1278.12 776.401C1275.8 776.724 1274.54 777.37 1274.54 777.37C1274.22 777.532 1273.81 777.424 1273.62 777.074C1273.46 776.751 1273.57 776.347 1273.89 776.159C1274.11 776.051 1279.44 773.332 1288.61 776.105C1288.96 776.213 1289.17 776.59 1289.07 776.94C1288.99 777.263 1288.72 777.451 1288.42 777.451Z" fill="white"/>
<path d="M1287.61 773.144C1287.53 773.144 1287.45 773.144 1287.4 773.117C1279.44 770.317 1276.61 772.928 1276.58 772.955C1276.32 773.225 1275.88 773.198 1275.64 772.928C1275.37 772.659 1275.4 772.228 1275.67 771.986C1275.8 771.852 1279.11 768.782 1287.86 771.825C1288.21 771.959 1288.39 772.336 1288.26 772.686C1288.15 772.982 1287.91 773.144 1287.61 773.144Z" fill="white"/>
<path d="M1310.72 575.19C1302.11 562.483 1288.74 545.523 1279.01 532.601C1277.07 530.016 1272.12 525.87 1270.67 524.524C1268.46 522.37 1266.85 520.567 1265.82 519.786C1257.32 513.271 1247.21 520.513 1247.34 525.816C1247.39 527.809 1247.69 530.501 1249.28 531.766C1250.41 532.654 1252.24 528.159 1253.37 529.02C1255.84 530.878 1256.49 535.777 1260.33 537.312C1264.05 538.793 1266.63 538.873 1269.19 539.277C1270.37 539.466 1271.47 539.25 1272.41 538.739C1274.38 560.814 1270.26 588.84 1278.95 598.72C1298.51 620.957 1321.65 591.343 1310.72 575.19Z" fill="#F5B58F"/>
<path d="M1258.32 503.74L1247.99 549.211C1247.88 549.669 1247.45 549.938 1246.99 549.83C1246.56 549.722 1246.26 549.292 1246.37 548.861L1255.63 503.148C1255.79 502.394 1256.51 501.91 1257.27 502.071C1258.02 502.233 1258.51 502.96 1258.34 503.714C1258.32 503.714 1258.32 503.74 1258.32 503.74Z" fill="#4B689D"/>
<path d="M1267.28 507.025L1246.61 548.807C1246.4 549.211 1245.92 549.399 1245.51 549.184C1245.11 548.996 1244.95 548.484 1245.14 548.08L1264.8 505.814C1265.12 505.114 1265.96 504.817 1266.63 505.141C1267.33 505.464 1267.63 506.298 1267.3 506.971C1267.28 506.998 1267.28 506.998 1267.28 507.025Z" fill="#4B689D"/>
<path d="M1269.4 535.319C1262.51 535.158 1260.79 530.5 1257.94 528.024C1255.12 525.574 1246.48 522.72 1249.22 520.647C1251.11 519.22 1260.01 525.681 1262.97 524.47L1269.4 535.319Z" fill="#F5B58F"/>
<path d="M1263.32 534.458C1261.6 533.381 1260.39 531.981 1259.34 530.716C1258.69 529.962 1258.08 529.235 1257.43 528.67C1256.54 527.889 1254.93 527.027 1253.37 526.193C1250.49 524.631 1248.01 523.312 1247.88 521.67C1247.85 521.239 1247.96 520.593 1248.74 520.001C1249.98 519.059 1252.24 520.001 1255.82 521.616C1258.34 522.774 1261.49 524.201 1262.68 523.716C1263.11 523.555 1263.59 523.743 1263.75 524.174C1263.91 524.605 1263.72 525.089 1263.29 525.251C1261.44 526.004 1258.37 524.605 1255.12 523.124C1253.31 522.316 1250.3 520.943 1249.74 521.32C1249.57 521.428 1249.55 521.509 1249.55 521.536C1249.55 521.536 1249.57 521.912 1250.73 522.72C1251.65 523.366 1252.91 524.039 1254.15 524.712C1255.79 525.601 1257.48 526.516 1258.51 527.404C1259.26 528.051 1259.9 528.831 1260.6 529.639C1262.59 531.954 1264.64 534.377 1269.43 534.485C1269.89 534.485 1270.26 534.889 1270.24 535.346C1270.24 535.804 1269.83 536.181 1269.37 536.154C1266.79 536.1 1264.85 535.4 1263.32 534.458Z" fill="#E8947B"/>
<path d="M1352.23 593.308C1350.97 587.466 1346.61 583.32 1343.84 581.974C1341.07 580.655 1336.98 581.867 1336.98 581.867C1336.98 581.867 1335.74 590.535 1336.98 593.147C1338.22 595.758 1346.05 602.731 1346.05 602.731C1346.05 602.731 1353.39 598.666 1352.23 593.308Z" fill="#F5B58F"/>
<path d="M1296.79 606.688H1341.39L1344.49 573.252H1293.69L1296.79 606.688Z" fill="#FF533F"/>
<path d="M1293.69 573.252L1297.41 554.487L1326.62 552.038L1341.31 573.252H1293.69Z" fill="#F0726E"/>
<path d="M1293.69 573.252L1281.83 556.695L1287.78 553.545L1295.85 573.252H1293.69Z" fill="#E5403A"/>
<path d="M1344.49 573.252L1357.4 556.695L1353.34 554.487L1343.01 573.252H1344.49Z" fill="#E5403A"/>
<path d="M1295.85 573.252L1311.42 555.564L1340.29 554.487L1343.01 573.252H1295.85Z" fill="#E5403A"/>
<path d="M1352.23 604.857C1350.67 608.411 1324.63 607.603 1323.45 605.45C1322.43 603.565 1332.76 604.938 1333.56 602.758C1334.37 600.577 1316 602.058 1316.27 599.877C1316.53 597.696 1331.36 598.342 1331.87 596.7C1332.38 595.058 1313.82 594.896 1314.89 592.07C1315.97 589.243 1329.64 593.12 1330.42 591.101C1331.2 589.081 1318.53 584.532 1320.7 581.893C1322.05 580.251 1329.31 584.747 1334.21 586.874C1338.57 588.758 1342.95 589.216 1342.95 589.216L1352.23 604.857Z" fill="#F5B58F"/>
<path d="M1234.4 585.286C1239.67 585.286 1243.36 580.978 1242.63 575.702L1230.23 487.884C1229.48 482.607 1224.58 478.3 1219.31 478.3H1106.45C1101.18 478.3 1097.49 482.607 1098.22 487.884L1110.62 575.702C1111.37 580.978 1116.27 585.286 1121.54 585.286H1234.4Z" fill="#758798"/>
<path d="M1229.24 585.286C1234.51 585.286 1238.19 580.978 1237.47 575.702L1225.07 487.884C1224.31 482.607 1219.42 478.3 1214.14 478.3H1101.29C1096.01 478.3 1092.33 482.607 1093.05 487.884L1105.46 575.702C1106.21 580.978 1111.11 585.286 1116.38 585.286H1229.24Z" fill="#616D7D"/>
<path d="M1145.89 606.688H1174.46L1186.08 563.506H1157.49L1145.89 606.688Z" fill="#616D7D"/>
<path d="M1141.67 606.688H1170.26L1181.86 563.506H1153.26L1141.67 606.688Z" fill="#7590A2"/>
<path d="M1130.21 602.461H1196.49C1197.65 602.461 1198.62 603.404 1198.62 604.588C1198.62 605.746 1197.68 606.715 1196.49 606.715H1130.21C1129.05 606.715 1128.08 605.773 1128.08 604.588C1128.08 603.404 1129.05 602.461 1130.21 602.461Z" fill="#758798"/>
<path d="M1186.08 563.506L1189.18 585.286H1180.25L1186.08 563.506Z" fill="#616D7D"/>
<path d="M963.706 763.452C966.423 763.452 968.629 761.244 968.629 758.525V674.126C968.629 671.407 966.423 669.2 963.706 669.2C960.988 669.2 958.782 671.407 958.782 674.126V758.525C958.782 761.217 960.988 763.452 963.706 763.452Z" fill="#9797C2"/>
<path d="M1020.69 783.885C1022.73 783.885 1024.37 782.216 1024.37 780.197V771.071C1024.37 764.367 1018.45 758.902 1011.19 758.902H916.222C908.959 758.902 903.04 764.367 903.04 771.071V779.093C903.04 781.139 904.708 782.781 906.726 782.781C908.77 782.781 910.411 781.112 910.411 779.093V771.071C910.411 768.432 912.994 766.306 916.195 766.306H1011.19C1014.36 766.306 1016.97 768.432 1016.97 771.071V780.197C1017 782.216 1018.64 783.885 1020.69 783.885Z" fill="#9797C2"/>
<path d="M1030.59 778.932C1030.59 779.066 1030.59 779.174 1030.59 779.308C1030.4 783.67 1026.79 787.143 1022.38 787.143C1017.83 787.143 1014.18 783.454 1014.18 778.932C1014.18 778.178 1014.28 777.451 1014.47 776.778C1015.41 773.278 1018.61 770.72 1022.38 770.72C1026.93 770.72 1030.59 774.409 1030.59 778.932Z" fill="#9797C2"/>
<path d="M911.191 778.932C911.191 783.481 907.506 787.143 902.986 787.143C898.44 787.143 894.781 783.454 894.781 778.932C894.781 778.824 894.781 778.716 894.781 778.608C894.969 774.22 898.547 770.72 902.986 770.72C906.887 770.72 910.169 773.44 911.003 777.101C911.111 777.693 911.191 778.312 911.191 778.932Z" fill="#9797C2"/>
<path d="M977.507 631.294H1014.07C1020.31 631.294 1025.61 626.691 1026.47 620.499L1039.09 529.666C1040.14 522.128 1034.3 515.424 1026.68 515.424H981.704C975.032 515.424 969.517 520.674 969.194 527.377L964.997 618.21C964.674 625.345 970.351 631.294 977.507 631.294Z" fill="#6370C7"/>
<path d="M912.133 681.529H1018.24C1022.33 681.529 1025.64 678.218 1025.64 674.126C1025.64 670.034 1022.33 666.723 1018.24 666.723H912.133C908.044 666.723 904.735 670.034 904.735 674.126C904.735 678.218 908.044 681.529 912.133 681.529Z" fill="#6370C7"/>
<path d="M993.137 778.932C993.137 783.481 989.452 787.143 984.932 787.143C980.493 787.143 976.861 783.616 976.727 779.201C976.727 779.12 976.727 779.012 976.727 778.932C976.727 774.382 980.412 770.72 984.932 770.72C988.537 770.72 991.577 773.036 992.707 776.266C993.003 777.101 993.137 777.989 993.137 778.932Z" fill="#9797C2"/>
<path d="M984.932 779.982C986.976 779.982 988.618 778.312 988.618 776.293V762.59C988.618 760.544 986.95 758.902 984.932 758.902C982.887 758.902 981.246 760.571 981.246 762.59V776.293C981.246 778.339 982.887 779.982 984.932 779.982Z" fill="#9797C2"/>
<path d="M953.079 778.932C953.079 783.481 949.393 787.143 944.874 787.143C940.515 787.143 936.937 783.75 936.668 779.443C936.668 779.281 936.641 779.093 936.641 778.932C936.641 774.382 940.327 770.72 944.847 770.72C948.586 770.72 951.734 773.224 952.729 776.643C952.971 777.37 953.079 778.151 953.079 778.932Z" fill="#9FB6BE"/>
<path d="M944.874 781.462C946.918 781.462 948.559 779.793 948.559 777.774V762.59C948.559 760.544 946.891 758.902 944.874 758.902C942.829 758.902 941.188 760.571 941.188 762.59V777.774C941.161 779.82 942.829 781.462 944.874 781.462Z" fill="#9FB6BE"/>
<path d="M953.079 778.932C953.079 783.481 949.393 787.143 944.874 787.143C940.516 787.143 936.937 783.751 936.668 779.443L952.756 776.643C952.971 777.37 953.079 778.151 953.079 778.932Z" fill="#406985"/>
<path d="M993.137 778.932C993.137 783.482 989.452 787.143 984.932 787.143C980.493 787.143 976.861 783.616 976.727 779.201L992.707 776.267C993.003 777.101 993.137 777.99 993.137 778.932Z" fill="#4B4B6D"/>
<path d="M1030.59 779.308C1030.4 783.67 1026.79 787.143 1022.38 787.143C1017.83 787.143 1014.18 783.454 1014.18 778.932C1014.18 778.178 1014.28 777.451 1014.47 776.778L1030.59 779.308Z" fill="#4B4B6D"/>
<path d="M911.191 778.931C911.191 783.481 907.506 787.143 902.986 787.143C898.44 787.143 894.781 783.454 894.781 778.931C894.781 778.824 894.781 778.716 894.781 778.608L910.976 777.128C911.111 777.693 911.191 778.312 911.191 778.931Z" fill="#4B4B6D"/>
<path d="M989.694 688.987H936.507C934.597 688.987 933.063 687.452 933.063 685.541V680.83H993.164V685.514C993.137 687.426 991.604 688.987 989.694 688.987Z" fill="#4B4B6D"/>
<path d="M970.727 752.952V724.712C970.727 722.962 969.301 721.562 967.58 721.562H959.778C958.029 721.562 956.63 722.989 956.63 724.712V752.952C956.63 754.702 955.204 756.102 953.483 756.102H939.601C937.852 756.102 936.453 757.529 936.453 759.252V765.121C936.453 766.871 937.879 768.271 939.601 768.271H989.263C991.012 768.271 992.411 766.844 992.411 765.121V759.252C992.411 757.502 990.985 756.102 989.263 756.102H973.929C972.126 756.102 970.727 754.702 970.727 752.952Z" fill="#4B4B6D"/>
<path d="M970.539 686.483C970.539 686.483 970.512 687.156 970.485 688.368C970.458 688.96 970.458 689.687 970.431 690.521C970.431 690.629 970.431 690.737 970.431 690.844V691.006V691.087V691.14V691.167V691.275V691.437V691.49V691.571L970.458 691.76C970.458 691.813 970.485 691.894 970.485 691.948L970.512 692.11C970.539 692.217 970.566 692.298 970.593 692.406C970.835 693.186 971.373 693.94 972.153 694.425C972.53 694.667 972.987 694.856 973.444 694.936C973.552 694.963 973.687 694.963 973.794 694.99L974.036 695.017C974.171 695.017 974.305 695.044 974.44 695.044C974.978 695.098 975.57 695.152 976.135 695.206C977.292 695.313 978.529 695.421 979.82 695.529C982.376 695.744 985.093 695.986 987.81 696.229C998.679 697.198 1009.57 698.167 1009.57 698.167C1011 698.302 1012.27 697.252 1012.37 695.825C1012.51 694.398 1011.46 693.133 1010.03 693.025C1009.98 693.025 1009.95 693.025 1009.9 693.025C1009.9 693.025 998.975 692.621 988.053 692.19C985.335 692.083 982.591 691.975 980.036 691.894C978.744 691.84 977.507 691.787 976.35 691.76C975.758 691.733 975.193 691.706 974.628 691.706C974.494 691.706 974.359 691.706 974.225 691.679H974.117H974.063H974.036C974.009 691.679 974.009 691.679 973.982 691.679C973.929 691.679 973.875 691.652 973.821 691.652C973.713 691.598 973.633 691.517 973.579 691.41C973.579 691.41 973.579 691.383 973.552 691.383V691.356V691.329V691.167C973.552 690.979 973.552 690.79 973.525 690.602C973.498 689.767 973.498 689.041 973.471 688.448C973.444 687.264 973.418 686.564 973.418 686.564C973.391 685.756 972.718 685.11 971.911 685.11C971.185 685.056 970.566 685.702 970.539 686.483Z" fill="#4B4B6D"/>
<path d="M941.645 460.37C947.887 452.778 961.069 449.978 970.835 460.72C971.238 461.151 974.251 461.097 976.188 462.632C981.031 466.401 978.072 475.688 979.444 478.192C982.026 482.93 990.312 484.276 992.922 488.53C997.415 495.853 991.55 499.325 992.196 506.11C992.734 511.575 1004.14 513.244 1004.38 523.016C1004.62 533.004 993.756 540.408 989.156 541.996C984.528 543.557 934.516 547.946 928.867 545.253C923.728 542.777 907.264 540.731 906.564 529.827C905.919 519.543 912.859 520.701 914.716 513.459C915.899 508.802 912.671 504.656 917.89 498.599C923.701 491.841 932.902 492.622 934.973 488.934C937.126 485.111 933.413 470.358 941.645 460.37Z" fill="#222B56"/>
<path d="M864.112 541.161C876.352 560.033 890.907 579.794 893.947 577.802C904.681 570.775 921.63 517.955 927.764 517.444C934.22 516.905 932.364 537.285 932.445 542.211C932.552 548.242 909.739 601.546 895.157 601.546C876.46 601.546 858.462 548.511 857.655 546.411C856.821 544.311 862.686 538.954 864.112 541.161Z" fill="#F7B690"/>
<path d="M1026.28 601.762C1026.28 571.071 994.213 517.982 987.488 518.009C979.74 518.036 979.551 548.592 983.318 553.868C990.716 564.233 1004.95 589.162 1005.08 596.135C1005.16 601.6 1026.28 609.192 1026.28 601.762Z" fill="#979DFE"/>
<path d="M927.172 558.58C926.203 570.102 930.158 597.131 935.969 607.873H984.205C989.586 601.277 992.061 571.637 992.061 563.049L987.891 518.009C985.416 516.744 978.771 516.071 975.57 515.451C968.467 514.105 948.29 513.19 942.856 514.348C934.355 516.151 930.884 516.232 927.683 517.255L927.172 558.58Z" fill="#979DFE"/>
<path d="M885.472 745.953C882.002 751.984 878.693 758.176 875.787 765.417C874.9 767.625 865.618 765.875 866.264 763.587C867.179 760.195 867.905 753.949 868.604 745.845C868.793 745.926 868.981 745.953 869.196 745.953H885.472Z" fill="#F7B690"/>
<path d="M956.792 745.953C955.904 752.441 954.855 758.66 953.778 764.502C953.509 765.983 944.739 766.683 944.551 764.502C944.067 759.253 942.614 752.98 940.65 745.953H956.792Z" fill="#F7B690"/>
<path d="M1003.17 656.332C1001.99 665.485 987.03 667.908 974.978 668.742C966.719 669.308 961.446 668.985 954.747 668.877C961.634 691.491 960.235 718.332 957.491 740.757C957.276 742.507 957.034 744.257 956.818 745.98H940.677C940.22 744.284 939.708 742.534 939.197 740.757C933.386 720.943 924.804 694.506 922.087 668.85L914.07 668.742C909.066 706.675 897.955 724.712 887.894 741.834C887.087 743.207 886.28 744.58 885.472 745.98H869.196C868.981 745.98 868.793 745.926 868.604 745.872C868.739 744.257 868.874 742.534 869.035 740.784C872.236 700.698 875.976 626.826 898.628 617.888C904.547 615.546 916.814 617.026 928.867 620.822C931.503 615.411 934.166 610.134 935.915 608.008H985.9C986.438 610.861 1006.21 632.641 1003.17 656.332Z" fill="#0A3C5F"/>
<path d="M954.532 668.958C951.707 660.181 948.102 653.801 943.152 648.928L944.847 647.205C950.066 652.374 953.886 659.051 956.818 668.231L954.532 668.958Z" fill="#222B54"/>
<path d="M919.262 668.608C918.267 659.697 918.428 650.705 919.747 643.274C921.199 635.09 923.97 629.087 927.737 625.937C932.983 621.549 944.362 621.414 961.553 625.56C974.144 628.602 985.416 632.91 985.524 632.964L984.663 635.225C984.555 635.171 973.417 630.918 960.961 627.902C944.793 623.999 933.844 623.972 929.297 627.768C925.961 630.568 923.486 636.06 922.141 643.678C920.876 650.866 920.688 659.616 921.683 668.311L919.262 668.608Z" fill="#222B54"/>
<path d="M915.819 668.635L913.478 668.042C916.088 657.893 914.904 649.494 914.339 645.455C914.231 644.648 914.151 644.029 914.097 643.544L916.518 643.355C916.545 643.759 916.626 644.378 916.733 645.132C917.325 649.305 918.563 658.028 915.819 668.635Z" fill="#222B54"/>
<path d="M975.516 515.424C971.131 514.536 968.709 511.601 967.364 509.232C965.535 504.736 966.315 494.156 966.611 480.426C965.185 480.696 948.129 473.723 949.77 483.738C951.357 493.456 952.729 504.36 949.958 509.367C948.183 512.086 944.147 513.809 942.56 514.428C942.21 515.64 959.778 563.452 959.778 563.452C959.778 563.452 975.543 517.901 975.516 515.424Z" fill="#F7B690"/>
<path d="M973.256 473.858C971.212 473.588 971.696 476.819 970.593 476.523C969.301 476.146 969.032 469.604 965.616 466.427C948.748 465.243 946.407 476.63 946.407 476.63C945.546 476.63 945.654 473.481 944.013 473.884C942.291 474.288 942.883 482.849 945.708 482.715C945.519 492.649 952.837 499.514 958.271 499.514C963.679 499.514 971.077 490.872 970.512 482.849C973.31 482.984 975.005 474.1 973.256 473.858Z" fill="#F7B690"/>
<path d="M958.487 500.94C955.904 500.94 953.483 499.81 950.604 497.306C950.335 497.064 950.308 496.633 950.55 496.364C950.792 496.095 951.223 496.068 951.492 496.31C954.128 498.598 956.28 499.621 958.513 499.621C960.773 499.621 964.163 497.01 965.589 495.152C965.804 494.856 966.235 494.802 966.53 495.018C966.826 495.233 966.88 495.664 966.665 495.96C965.024 498.033 961.311 500.94 958.487 500.94Z" fill="#F4A086"/>
<path d="M959.778 564.099H959.751C958.89 564.072 956.657 564.045 947.672 547.757C943.34 539.869 939.466 531.901 939.439 531.82L939.251 531.416L943.179 527.108L932.471 516.986L933.386 516.017L945.062 527.055L940.865 531.658C941.699 533.381 945.116 540.3 948.882 547.138C956.845 561.595 959.24 562.753 959.805 562.779C959.885 562.779 960.289 562.753 961.257 561.81C966.988 556.211 978.368 532.897 978.637 530.554C977.695 528.805 975.946 526.974 975.919 526.947L975.435 526.462L985.443 516.959L986.358 517.928L977.318 526.516C977.964 527.243 979.148 528.643 979.874 530.07C980.036 530.393 980.412 531.093 976.081 539.923C973.337 545.523 970.108 551.419 967.445 555.672C962.71 563.183 960.8 564.099 959.778 564.099Z" fill="#858BED"/>
<path d="M949.609 534.728H969.57C969.57 534.728 963.06 563.049 959.778 563.049C956.307 563.049 949.609 534.728 949.609 534.728Z" fill="#FFBF34"/>
<path d="M929.485 516.771C929.485 516.771 923.056 517.255 918.59 528.643C914.124 540.058 897.982 573.521 897.982 573.521C897.982 573.521 907.398 590.293 908.985 590.751C910.6 591.236 933.413 564.503 934.247 552.388C935.108 540.273 929.485 516.771 929.485 516.771Z" fill="#979DFE"/>
<path d="M899.3 600.308C902.018 594.978 894.081 580.871 892.117 577.533C890.853 575.379 896.529 570.318 898.736 572.014C902.179 574.679 911.111 583.913 911.837 590.347C912.564 596.97 898.224 602.408 899.3 600.308Z" fill="#858BED"/>
<path d="M963.759 560.895H962.414V606.634H963.759V560.895Z" fill="#858BED"/>
<path d="M957.357 561.164H956.011V606.634H957.357V561.164Z" fill="#858BED"/>
<path d="M959.858 569.456C958.729 569.456 957.787 568.541 957.787 567.437C957.787 566.333 958.702 565.418 959.858 565.418C960.988 565.418 961.93 566.333 961.93 567.437C961.93 568.541 960.988 569.456 959.858 569.456ZM959.858 566.764C959.455 566.764 959.132 567.06 959.132 567.437C959.132 567.814 959.455 568.11 959.858 568.11C960.262 568.11 960.585 567.814 960.585 567.437C960.585 567.06 960.262 566.764 959.858 566.764Z" fill="#858BED"/>
<path d="M959.858 581.059C958.755 581.059 957.841 580.171 957.841 579.094C957.841 578.017 958.755 577.128 959.858 577.128C960.961 577.128 961.876 578.017 961.876 579.094C961.876 580.171 960.961 581.059 959.858 581.059ZM959.858 578.448C959.482 578.448 959.186 578.717 959.186 579.067C959.186 579.417 959.482 579.686 959.858 579.686C960.235 579.686 960.531 579.417 960.531 579.067C960.531 578.717 960.235 578.448 959.858 578.448Z" fill="#858BED"/>
<path d="M959.858 592.581C958.755 592.581 957.841 591.693 957.841 590.616C957.841 589.539 958.755 588.651 959.858 588.651C960.961 588.651 961.876 589.539 961.876 590.616C961.876 591.693 960.961 592.581 959.858 592.581ZM959.858 589.97C959.482 589.97 959.186 590.239 959.186 590.589C959.186 590.939 959.482 591.208 959.858 591.208C960.235 591.208 960.531 590.939 960.531 590.589C960.531 590.266 960.235 589.97 959.858 589.97Z" fill="#858BED"/>
<path d="M1017.19 606.742C1005.16 606.742 967.499 606.742 964.943 606.742C962.387 606.742 959.455 598.801 963.194 599.366C980.681 602.031 1001.48 592.151 1008.58 593.712C1013.61 594.816 1027.81 601.197 1025.88 603.835C1024.08 606.258 1021.22 606.742 1017.19 606.742Z" fill="#F7B690"/>
<path d="M967.149 599.742C961.392 599.043 953.59 591.047 951.815 591.343C950.039 591.639 940.435 601.546 940.435 603.35C940.435 605.019 943.878 606.769 946.515 606.769H952.433C953.509 606.204 955.823 604.615 956.334 604.588C956.657 604.561 959.051 606.177 961.123 606.769C965.32 606.769 968.763 606.769 968.763 606.769L967.149 599.742Z" fill="#F7B690"/>
<path d="M941.78 605.019C941.753 605.019 941.753 605.019 941.726 605.019C941.511 604.992 941.349 604.777 941.376 604.562C941.538 603.404 945.95 598.02 950.685 595.166C950.873 595.058 951.115 595.112 951.25 595.301C951.357 595.489 951.303 595.731 951.115 595.866C946.515 598.612 942.291 603.942 942.183 604.669C942.13 604.885 941.968 605.019 941.78 605.019Z" fill="#F4A086"/>
<path d="M944.362 606.311C944.282 606.311 944.228 606.285 944.147 606.258C943.959 606.15 943.878 605.908 944.013 605.692C944.954 604.104 949.178 600.093 953.079 597.831C953.267 597.724 953.509 597.777 953.617 597.993C953.725 598.181 953.671 598.423 953.456 598.531C949.393 600.873 945.465 604.75 944.685 606.096C944.631 606.231 944.497 606.311 944.362 606.311Z" fill="#F4A086"/>
<path d="M948.613 606.715C948.559 606.715 948.479 606.688 948.425 606.661C948.236 606.554 948.156 606.311 948.263 606.123C948.667 605.369 950.308 604.077 952.622 602.3C953.725 601.439 954.774 600.631 955.15 600.227C955.312 600.066 955.554 600.066 955.715 600.227C955.877 600.389 955.877 600.631 955.715 600.792C955.285 601.25 954.263 602.031 953.079 602.946C951.492 604.185 949.313 605.854 948.963 606.5C948.909 606.634 948.775 606.715 948.613 606.715Z" fill="#F4A086"/>
<path d="M968.171 606.715C967.983 606.715 967.795 606.581 967.768 606.365C967.741 606.15 967.876 605.935 968.091 605.908C969.328 605.692 969.382 604.615 969.382 604.615C969.382 604.4 969.57 604.212 969.786 604.212C970.001 604.212 970.189 604.4 970.189 604.615C970.189 605.073 969.839 606.446 968.225 606.715C968.198 606.715 968.198 606.715 968.171 606.715Z" fill="#F4A086"/>
<path d="M1013.48 605.961C1010.97 603.377 1002.31 596.916 998.948 594.87C996.796 593.551 1001.34 589.001 1004.11 589.485C1008.44 590.239 1022.54 596.404 1026.31 601.762C1030.13 607.254 1015.12 607.657 1013.48 605.961Z" fill="#858BED"/>
<path d="M889.104 741.78V744.123C889.104 745.146 888.378 745.98 887.463 745.98H869.196C868.981 745.98 868.793 745.926 868.604 745.845C868.013 745.576 867.582 744.903 867.582 744.123V741.78C867.582 740.838 868.228 740.03 869.035 739.95C869.089 739.95 869.143 739.95 869.223 739.95H887.49C888.217 739.95 888.808 740.488 889.024 741.215C889.077 741.377 889.104 741.565 889.104 741.78Z" fill="#351E6C"/>
<path d="M958.998 741.78V744.123C958.998 745.146 958.271 745.98 957.357 745.98H939.09C938.874 745.98 938.686 745.926 938.498 745.845C937.906 745.576 937.475 744.903 937.475 744.123V741.78C937.475 740.838 938.121 740.03 938.928 739.95C938.982 739.95 939.036 739.95 939.117 739.95H957.383C957.41 739.95 957.464 739.95 957.491 739.95C958.164 740.004 958.729 740.515 958.917 741.215C958.971 741.377 958.998 741.565 958.998 741.78Z" fill="#351E6C"/>
<path d="M864.73 546.303C864.327 540.811 868.47 535.589 867.636 532.062C866.802 528.535 862.767 527.081 860.023 522.37C858.166 519.167 857.144 526.408 860.399 528.427C863.143 530.124 861.96 532.035 859.081 531.523C856.202 531.012 843.128 516.959 840.249 515.801C839.549 515.505 839.011 516.313 839.334 517.04C840.33 519.328 844.796 524.632 845.038 525.332C845.36 526.355 843.074 532.062 843.585 535.427C844.688 542.534 855.718 543.988 857.655 546.33C859.592 548.646 864.73 546.303 864.73 546.303Z" fill="#F7B690"/>
<path d="M860.668 545.2L846.706 544.258C845.818 544.204 845.172 543.45 845.226 542.561L847.271 512.167C847.324 511.279 848.078 510.633 848.965 510.686L862.928 511.629C863.816 511.683 864.461 512.436 864.408 513.325L862.363 543.719C862.309 544.608 861.529 545.254 860.668 545.2Z" fill="#2C4E77"/>
<path opacity="0.2" d="M854.507 543.584L853.001 543.477C852.57 543.45 852.248 543.073 852.275 542.669C852.301 542.238 852.678 541.915 853.082 541.942L854.588 542.05C855.019 542.077 855.341 542.454 855.315 542.858C855.315 543.288 854.938 543.611 854.507 543.584Z" fill="white"/>
<path d="M857.951 513.352L853.62 513.055C853.431 513.055 853.297 512.867 853.297 512.679C853.297 512.49 853.485 512.355 853.673 512.355L858.005 512.652C858.193 512.652 858.328 512.84 858.328 513.029C858.301 513.217 858.139 513.378 857.951 513.352Z" fill="#94B0F1"/>
<path d="M847.854 513.682L846.053 540.598L861.783 541.652L863.584 514.736L847.854 513.682Z" fill="#B5D7FF"/>
<path opacity="0.2" d="M849.557 540.838L846.087 540.623L860.103 514.509L863.601 514.752L849.557 540.838Z" fill="white"/>
<path opacity="0.2" d="M858.57 514.428L846.275 537.312L847.862 513.701L858.57 514.428Z" fill="white"/>
<path d="M845.872 526.14C845.872 526.14 844.284 532.035 844.258 534.081C844.231 536.127 844.607 537.123 845.549 536.854C846.49 536.585 847.082 535.508 848.589 537.231C850.095 538.954 851.091 538.927 851.521 538.55C851.952 538.173 851.817 536.558 851.817 536.558C851.817 536.558 853.647 536.02 853.862 535.32C854.077 534.647 853.862 533.112 853.862 533.112C853.862 533.112 856.391 532.493 856.041 531.524C855.664 530.555 852.732 525.897 851.629 525.79C850.526 525.682 846.437 524.955 845.872 526.14Z" fill="#F7B690"/>
<path d="M855.853 532.816C855.503 533.085 855.099 533.193 854.696 533.22C854.723 533.247 854.723 533.274 854.723 533.301C855.422 534.808 854.83 535.697 854.534 535.993C854.158 536.397 853.62 536.585 853.055 536.585C852.813 536.585 852.543 536.558 852.301 536.477C852.543 537.043 852.705 537.554 852.705 537.877C852.705 537.904 852.705 537.931 852.705 537.958V538.012C852.705 538.039 852.678 538.093 852.678 538.12C852.651 538.173 852.651 538.2 852.624 538.254C852.624 538.281 852.597 538.281 852.597 538.308C852.194 538.927 851.979 539.116 851.844 539.223C851.333 539.6 850.822 539.789 850.311 539.789C850.176 539.789 850.068 539.789 849.961 539.762C849.369 539.654 848.858 539.304 848.481 538.712C848.4 538.604 848.266 538.389 848.131 538.147C847.862 537.716 847.297 536.8 847.028 536.451C846.813 536.504 846.437 536.666 846.114 536.827C845.791 536.989 845.387 536.881 845.226 536.558C845.065 536.235 845.172 535.831 845.495 535.67C846.437 535.158 847.136 534.997 847.566 535.212C847.943 535.401 848.32 535.966 849.234 537.447C849.369 537.662 849.477 537.85 849.557 537.985C849.746 538.254 849.934 538.416 850.176 538.47C850.499 538.523 850.849 538.335 851.064 538.173C851.064 538.173 851.171 538.093 851.414 537.716C851.252 536.8 849.154 533.408 848.535 532.762C848.105 532.682 846.571 532.655 845.334 532.789C844.984 532.816 844.661 532.574 844.607 532.197C844.58 531.847 844.822 531.524 845.199 531.47C845.226 531.47 848.347 531.174 849.154 531.578C849.557 531.793 850.902 533.651 851.817 535.374C851.979 535.131 852.301 535.051 852.597 535.158C853.001 535.32 853.431 535.293 853.646 535.078C853.862 534.835 853.835 534.404 853.593 533.839C852.947 532.439 850.822 529.101 850.203 528.751C849.611 528.563 848.185 528.643 847.028 528.724L846.544 528.751C846.194 528.778 845.872 528.509 845.845 528.132C845.818 527.782 846.114 527.459 846.463 527.432L846.948 527.405C848.347 527.324 849.799 527.243 850.633 527.513C851.467 527.782 852.92 530.043 853.862 531.658C853.969 531.658 854.077 531.685 854.158 531.739C854.454 531.901 854.696 531.955 854.938 531.874C855.153 531.793 855.261 531.658 855.341 531.578C854.992 530.528 852.839 527.566 852.032 526.84C851.387 526.247 848.616 525.574 846.41 526.22C846.06 526.328 845.71 526.113 845.603 525.763C845.495 525.413 845.71 525.063 846.06 524.955C848.535 524.255 851.817 524.874 852.92 525.87C853.754 526.651 856.337 530.016 856.66 531.389C856.713 531.928 856.31 532.493 855.853 532.816Z" fill="#F4A086"/>
<path d="M876.675 787.143H858.166C857.117 787.143 856.256 786.632 855.745 785.905C855.153 785.07 855.019 783.966 855.584 782.943L865.564 764.233C865.78 763.883 865.995 763.587 866.264 763.264C866.91 762.51 867.69 761.891 868.604 761.46C870.595 760.518 873.581 759.898 875.841 762.698C875.868 762.725 875.895 762.752 875.922 762.779C879.231 767.006 880.495 783.993 880.495 783.993C880.657 785.689 878.424 787.143 876.675 787.143Z" fill="#0A3C5F"/>
<path d="M876.272 760.625C876.272 760.625 877.698 775.405 877.106 780.224C876.917 781.732 862.121 781.032 860.641 779.766C860.399 779.551 860.399 779.066 860.561 778.393C861.421 774.894 866.21 764.933 866.479 762.617L868.578 760.733L876.272 760.625Z" fill="#F7B690"/>
<path d="M876.272 787.143C878.128 787.143 879.258 785.393 878.935 783.616C878.047 778.663 871.187 776.24 866.883 776.698C860.453 777.371 857.547 779.686 855.772 783.886C855.126 785.42 856.041 787.143 857.736 787.143H876.272Z" fill="#0A3C5F"/>
<path d="M954.29 787.143H935.781C934.731 787.143 933.87 786.632 933.359 785.905C932.767 785.07 932.633 783.966 933.198 782.943L943.179 764.233C943.394 763.883 943.609 763.587 943.878 763.264C944.524 762.51 945.304 761.891 946.219 761.46C948.21 760.518 951.196 759.898 953.456 762.698C953.483 762.725 953.509 762.752 953.536 762.779C956.845 767.006 958.11 783.993 958.11 783.993C958.271 785.689 956.011 787.143 954.29 787.143Z" fill="#0A3C5F"/>
<path d="M953.886 760.625C953.886 760.625 955.312 775.405 954.72 780.224C954.532 781.732 939.735 781.032 938.256 779.766C938.014 779.551 938.014 779.066 938.175 778.393C939.036 774.894 943.824 764.933 944.094 762.617L946.192 760.733L953.886 760.625Z" fill="#F7B690"/>
<path d="M953.886 787.143C955.742 787.143 956.872 785.393 956.549 783.616C955.662 778.663 948.801 776.24 944.497 776.698C938.067 777.371 935.162 779.686 933.386 783.886C932.741 785.42 933.655 787.143 935.35 787.143H953.886Z" fill="#0A3C5F"/>
<path d="M780.471 788.084H773.18L744.26 627.498L715.313 788.084H708.022L737.938 607.01H750.582L750.717 607.791L780.471 788.084ZM774.768 786.2H778.265L748.968 608.922H739.525L710.255 786.2H713.752L742.807 624.94C742.942 624.213 743.534 623.729 744.26 623.729C744.986 623.729 745.578 624.24 745.713 624.94L774.768 786.2Z" fill="#D0D9DF"/>
<path d="M1134.16 788.085H1126.87L1126.74 787.304L1097.95 627.472L1069 788.085H1061.71L1091.63 607.011H1104.27L1134.16 788.085ZM1128.46 786.2H1131.96L1102.68 608.896H1093.24L1063.97 786.2H1067.47L1096.63 624.349C1096.74 623.676 1097.3 623.218 1097.98 623.218C1098.65 623.218 1099.21 623.676 1099.32 624.349L1128.46 786.2Z" fill="#D0D9DF"/>
<path d="M1487.88 788.085H1480.59L1480.45 787.304L1451.67 627.472L1422.72 788.085H1415.43L1445.34 607.011H1457.99L1487.88 788.085ZM1482.15 786.2H1485.64L1456.38 608.896H1446.93L1417.66 786.2H1421.16L1450.43 623.783C1450.54 623.164 1451.05 622.733 1451.67 622.733C1452.29 622.733 1452.8 623.164 1452.9 623.783L1482.15 786.2Z" fill="#D0D9DF"/>
<path d="M737.104 616.622H1458.98C1464.55 616.622 1465.58 614.415 1465.58 611.669C1465.58 608.923 1464.55 606.715 1458.98 606.715H737.104C731.535 606.715 729.706 608.923 729.706 611.669C729.706 614.415 731.535 616.622 737.104 616.622Z" fill="#56D1EE"/>
<path d="M1069.97 605.988H1049.79L1046.49 575.163H1073.25L1069.97 605.988Z" fill="#FF533F"/>
<path d="M1075.14 573.656H1044.6L1045.6 570.91H1074.14L1075.14 573.656Z" fill="#B5D7FF"/>
<path d="M1072.96 567.275H1046.78V569.618H1072.96V567.275Z" fill="#B5D7FF"/>
<path d="M1057.62 564.96C1057.62 564.96 1051.87 559.656 1056.28 555.618C1060.69 551.58 1062.44 549.022 1059.16 545.63C1055.87 542.238 1055.87 542.238 1055.87 542.238C1055.87 542.238 1065.13 542.211 1065.13 550.315C1065.13 557.045 1056.52 556.237 1057.62 564.96Z" fill="#D0D9DF"/>
<path d="M727.857 702.973C724.646 693.573 706.708 700.718 699.404 681.04C697.905 677.004 713.464 670.025 713.155 665.254C713.012 662.999 696.716 663.165 696.644 660.815C695.74 633.374 709.111 614.573 703.853 598.408C702.021 592.758 713.988 592.521 712.608 588.106C712.132 586.586 700.142 589.649 699.071 588.438C692.838 581.364 679.396 567.976 677.041 559.929C675.328 554.042 676.375 544.618 677.683 535.692C677.969 533.746 690.197 534.197 690.483 532.345C691.41 526.221 678.159 530.517 677.755 527.384C676.66 518.767 664.218 486.721 678.445 481.261C689.055 477.178 716.486 518.197 719.84 529.117C720.221 530.375 709.919 541.437 711.252 542.41C712.417 543.265 725.811 533.603 727.167 534.553C737.611 541.84 752.385 551.525 755.621 561.258C759.76 573.697 750.934 597.245 752.29 605.078C754.408 617.28 772.012 639.759 775.272 662.619C775.462 664.02 758.381 660.696 758.476 662.097C758.618 664.542 775.819 671.734 775.557 674.156C775.367 675.912 744.13 661.29 743.702 663.046C743.107 665.373 773.226 684.054 772.131 686.309C763.876 703.567 748.793 697.205 741.68 696.944C734.543 696.707 727.857 702.973 727.857 702.973Z" fill="#78A72C"/>
<path d="M726.145 673.894C727.096 673.657 728.048 673.467 729.024 673.277C730.38 705.133 729.285 734.046 727.001 752.515C726.716 754.888 723.1 754.461 723.385 752.063C725.883 731.768 727.096 703.828 726.145 673.894Z" fill="#98B51C"/>
<path d="M687.651 514.019C688.27 513.497 688.603 514.209 690.316 516.18C715.224 547.561 725.787 611.084 728.714 667.153C727.786 667.319 726.834 667.509 725.906 667.722C724.098 623.76 716.247 548.629 687.604 514.874C687.366 514.589 687.413 514.233 687.651 514.019Z" fill="#98B51C"/>
<path d="M710.847 718.522C704.329 710.332 690.245 722.747 674.829 706.89C673.734 705.751 691.41 695.781 690.53 694.428C689.127 692.315 669.285 698.677 668.31 696.113C661.815 679.093 663.552 653.622 657.224 636.27C656.653 634.727 668.524 626.632 667.81 625.208C666.93 623.475 653.489 628.484 652.442 626.988C643.306 613.956 628.033 609.541 617.208 601.992C615.448 600.758 630.674 583.002 629.199 581.578C628.176 580.581 610.357 595.963 609.5 594.823C602.006 584.759 601.721 570.112 600.079 559.905C599.675 557.341 609.357 553.424 608.644 551.573C608.096 550.125 597.224 550.552 596.32 549.674C589.754 543.288 573.458 526.292 582.855 516.417C584.044 515.159 591.967 526.506 593.323 526.031C595.083 525.39 590.349 513.165 592.347 513.616C603.767 516.156 618.707 534.197 633.409 544.594C634.599 545.425 629.508 559.406 630.697 560.142C632.03 560.949 639.619 548.511 640.927 549.152C651.704 554.421 678.54 558.125 687.842 568.308C688.508 569.044 662.933 588.652 663.504 589.554C664.218 590.693 691.054 573.127 691.601 574.456C696.692 586.491 696.026 605.648 700.165 612.912C706.613 624.258 732.092 640.282 743.44 661.764C744.13 663.094 726.026 665.847 726.62 667.2C727.643 669.574 747.223 670.595 747.841 673.087C748.293 674.915 712.132 671.497 712.322 673.396C712.56 675.888 749.055 683.722 748.793 686.357C746.771 706.368 729.546 705.442 722.409 707.697C715.272 709.952 710.847 718.522 710.847 718.522Z" fill="#98B51C"/>
<path d="M634.171 571.893C633.552 571.37 632.743 572.32 633.362 572.842C680.895 613.339 710.585 701.383 717.556 763.648C717.651 764.526 718.436 765.167 719.317 765.048C720.197 764.953 720.839 764.17 720.72 763.292C714.392 706.487 684.368 613.861 634.171 571.893Z" fill="#78A72C"/>
<path d="M742.821 724.884C746.747 716.932 761.782 725.335 770.537 708.813C772.321 705.419 759.379 697.443 760.212 693.241C760.593 691.271 774.986 693.289 775.319 691.247C779.316 667.106 769.681 648.899 776.223 635.226C778.507 630.431 767.944 628.84 769.681 625.09C770.275 623.808 780.529 627.914 781.623 626.965C787.975 621.434 801.417 611.155 804.415 604.319C806.627 599.31 806.794 590.836 806.675 582.812C806.651 581.056 795.779 580.035 795.755 578.373C795.66 572.842 806.865 578.183 807.579 575.477C809.553 567.976 824.28 541.105 812.361 534.624C803.463 529.782 774.415 562.872 770.18 572.13C769.681 573.198 777.508 584.165 776.223 584.877C775.081 585.495 764.375 575.406 763.067 576.094C753.004 581.317 738.801 588.177 734.804 596.414C729.689 606.93 734.756 628.793 732.639 635.558C729.356 646.098 711.156 663.949 705.613 683.746C705.28 684.957 720.768 684.007 720.53 685.241C720.125 687.402 704.091 691.746 704.019 693.93C703.972 695.52 733.305 686.215 733.472 687.805C733.71 689.918 704.923 702.95 705.613 705.063C710.895 721.276 724.979 717.406 731.283 718C737.635 718.546 742.821 724.884 742.821 724.884Z" fill="#B0D354"/>
<path d="M796.255 567.43C796.778 566.955 797.54 567.739 796.969 568.261C795.779 569.353 794.994 570.041 793.353 571.727C758.642 608.948 742.013 710.309 741.585 760.538C741.585 761.44 740.823 762.176 739.919 762.176C739.015 762.176 738.278 761.416 738.278 760.514C738.658 716.765 756.239 603.037 796.255 567.43Z" fill="#98B51C"/>
<path d="M756.406 750.093L754.574 753.512C754.574 753.512 753.337 789.546 744.249 789.546H711.181C702.212 789.546 700.856 753.986 700.856 753.986L699.024 750.117C699.024 749.31 699.69 748.669 700.475 748.669H754.907C755.74 748.645 756.406 749.286 756.406 750.093Z" fill="#394257"/>
<g clip-path="url(#clip0)">
<path d="M1421.23 385.792C1416.66 383.857 1414.33 380.774 1413.85 378.892C1412.25 372.853 1415.8 370.756 1416.81 367.942C1418.29 363.766 1411.34 359.949 1411.02 354.608C1410.55 346.956 1421.88 343.622 1422.22 341.167C1422.92 336.167 1416.91 335.074 1416.82 330.97C1416.68 324.5 1423.49 325.79 1425.55 321.399C1426.98 318.335 1425.69 311.417 1432.02 310.109C1435.53 309.392 1438.04 312.743 1438.68 315.646C1439.44 318.998 1437.39 321.417 1438.56 324.267C1439.81 327.349 1446.48 330.02 1446.19 337.475C1445.91 344.787 1439.99 347.78 1440.76 352.583C1441.23 355.558 1443.88 356.221 1444.74 359.358C1445.91 363.569 1442.52 365.684 1443.31 368.605C1444.22 372.082 1449.04 372.046 1449.04 379.34C1449.04 383.068 1444.33 386.886 1438.11 385.792C1429.06 388.266 1422.31 386.24 1421.23 385.792Z" fill="#9CAF49"/>
<path d="M1419.53 378.623C1419.89 377.727 1420.57 377.01 1421.11 376.203C1423.17 373.174 1423.17 368.891 1421.09 365.88C1420.35 364.787 1419.37 363.855 1418.81 362.672C1416.27 357.188 1423.4 351.65 1421.84 346.005C1421.11 343.388 1418.54 341.13 1419.14 338.46C1419.49 336.829 1420.96 335.718 1421.84 334.284C1424.92 329.23 1420.08 322.581 1421.36 318.925C1421.72 317.886 1422.68 316.99 1423.79 317.043C1425.68 317.133 1426.39 319.57 1426.23 321.434C1426.07 323.298 1425.66 325.484 1426.98 326.811C1427.92 327.761 1429.38 327.886 1430.66 328.352C1434.08 329.624 1435.82 334.177 1434.13 337.42C1433.31 339.015 1431.86 340.18 1430.8 341.632C1429.74 343.084 1429.13 345.163 1430.15 346.632C1431 347.869 1432.81 348.389 1433.22 349.822C1433.4 350.45 1433.27 351.131 1432.99 351.704C1432.27 353.21 1430.75 354.088 1429.47 355.163C1428.22 356.238 1427.09 357.905 1427.66 359.464C1428.08 360.575 1429.19 361.238 1429.99 362.099C1431.77 364.052 1431.73 367.368 1429.92 369.285C1429.28 369.966 1428.43 370.486 1427.83 371.203C1427.22 371.92 1426.86 373.013 1427.36 373.82C1432.02 376.956 1434.62 377.995 1432.34 381.849C1431.28 383.623 1429.9 385.272 1428.09 386.221C1423.4 388.73 1417.45 383.82 1419.53 378.623Z" fill="#B6CE78"/>
<path d="M1420.78 386.24L1421.34 387.297C1421.34 387.297 1421.72 398.48 1424.53 398.48H1434.78C1437.56 398.48 1437.97 387.44 1437.97 387.44L1438.52 386.24C1438.52 385.989 1438.33 385.792 1438.07 385.792H1421.23C1420.98 385.792 1420.78 385.989 1420.78 386.24Z" fill="#7BA9D8"/>
<path d="M1425.85 386.24L1426.41 387.297C1426.41 387.297 1426.79 398.48 1429.6 398.48H1434.76C1437.54 398.48 1437.95 387.44 1437.95 387.44L1438.5 386.24C1438.5 385.989 1438.31 385.792 1438.06 385.792H1426.3C1426.07 385.792 1425.85 385.989 1425.85 386.24Z" fill="#7BA9D8"/>
<path d="M1458.23 398.498H1523.17C1523.51 398.498 1523.8 398.229 1523.8 397.871V383.533C1523.8 383.193 1523.53 382.906 1523.17 382.906H1458.23C1457.89 382.906 1457.61 383.175 1457.61 383.533V397.871C1457.61 398.229 1457.89 398.498 1458.23 398.498Z" fill="#FFBF34"/>
<path d="M1519.25 395.541H1485.02C1484.64 395.541 1484.34 395.236 1484.34 394.86V386.472C1484.34 386.096 1484.64 385.791 1485.02 385.791H1519.25C1519.62 385.791 1519.93 386.096 1519.93 386.472V394.86C1519.94 395.236 1519.62 395.541 1519.25 395.541Z" fill="#F3A308"/>
<path d="M1468.05 394.018C1469.97 394.018 1471.53 392.533 1471.53 390.702C1471.53 388.871 1469.97 387.386 1468.05 387.386C1466.13 387.386 1464.58 388.871 1464.58 390.702C1464.58 392.533 1466.13 394.018 1468.05 394.018Z" fill="#F3A308"/>
<path d="M1489.16 394.806C1488.68 394.806 1488.3 394.466 1488.3 394.018V387.405C1488.3 386.974 1488.69 386.616 1489.16 386.616C1489.64 386.616 1490.02 386.956 1490.02 387.405V394.018C1490.02 394.448 1489.63 394.806 1489.16 394.806Z" fill="#FFBF34"/>
<path d="M1492.05 394.806C1491.56 394.806 1491.19 394.466 1491.19 394.018V387.405C1491.19 386.974 1491.58 386.616 1492.05 386.616C1492.53 386.616 1492.91 386.956 1492.91 387.405V394.018C1492.92 394.448 1492.53 394.806 1492.05 394.806Z" fill="#FFBF34"/>
<path d="M1494.95 394.806C1494.46 394.806 1494.09 394.466 1494.09 394.018V387.405C1494.09 386.974 1494.48 386.616 1494.95 386.616C1495.43 386.616 1495.81 386.956 1495.81 387.405V394.018C1495.81 394.448 1495.41 394.806 1494.95 394.806Z" fill="#FFBF34"/>
<path d="M1458.23 381.167H1523.17C1523.51 381.167 1523.8 380.899 1523.8 380.54V366.203C1523.8 365.862 1523.53 365.575 1523.17 365.575H1458.23C1457.89 365.575 1457.61 365.844 1457.61 366.203V380.54C1457.61 380.899 1457.89 381.167 1458.23 381.167Z" fill="#FFBF34"/>
<path d="M1519.25 378.21H1485.02C1484.64 378.21 1484.34 377.905 1484.34 377.529V369.142C1484.34 368.765 1484.64 368.461 1485.02 368.461H1519.25C1519.62 368.461 1519.93 368.765 1519.93 369.142V377.529C1519.94 377.905 1519.62 378.21 1519.25 378.21Z" fill="#F3A308"/>
<path d="M1468.05 376.705C1469.97 376.705 1471.53 375.22 1471.53 373.389C1471.53 371.558 1469.97 370.074 1468.05 370.074C1466.13 370.074 1464.58 371.558 1464.58 373.389C1464.58 375.22 1466.13 376.705 1468.05 376.705Z" fill="#F3A308"/>
<path d="M1489.16 377.475C1488.68 377.475 1488.3 377.135 1488.3 376.687V370.074C1488.3 369.644 1488.69 369.285 1489.16 369.285C1489.64 369.285 1490.02 369.626 1490.02 370.074V376.687C1490.02 377.117 1489.63 377.475 1489.16 377.475Z" fill="#FFBF34"/>
<path d="M1492.05 377.475C1491.56 377.475 1491.19 377.135 1491.19 376.687V370.074C1491.19 369.644 1491.58 369.285 1492.05 369.285C1492.53 369.285 1492.91 369.626 1492.91 370.074V376.687C1492.92 377.117 1492.53 377.475 1492.05 377.475Z" fill="#FFBF34"/>
<path d="M1494.95 377.475C1494.46 377.475 1494.09 377.135 1494.09 376.687V370.074C1494.09 369.644 1494.48 369.285 1494.95 369.285C1495.43 369.285 1495.81 369.626 1495.81 370.074V376.687C1495.81 377.117 1495.41 377.475 1494.95 377.475Z" fill="#FFBF34"/>
<path d="M1523.15 364.088H1458.23C1457.89 364.088 1457.61 363.819 1457.61 363.461V349.123C1457.61 348.783 1457.87 348.496 1458.23 348.496H1523.17C1523.51 348.496 1523.8 348.765 1523.8 349.123V363.461C1523.78 363.801 1523.51 364.088 1523.15 364.088Z" fill="#90E2F5"/>
<path d="M1462.14 361.131H1493.71C1494.09 361.131 1494.39 360.826 1494.39 360.45V352.062C1494.39 351.686 1494.09 351.381 1493.71 351.381H1462.14C1461.76 351.381 1461.46 351.686 1461.46 352.062V360.45C1461.46 360.826 1461.76 361.131 1462.14 361.131Z" fill="#56D1EE"/>
<path d="M1514.68 359.51C1516.46 359.089 1517.57 357.304 1517.15 355.521C1516.73 353.739 1514.94 352.636 1513.16 353.057C1511.38 353.477 1510.27 355.263 1510.69 357.045C1511.11 358.827 1512.9 359.931 1514.68 359.51Z" fill="#56D1EE"/>
<path d="M1489.57 360.378C1489.09 360.378 1488.71 360.038 1488.71 359.59V352.977C1488.71 352.546 1489.11 352.188 1489.57 352.188C1490.06 352.188 1490.43 352.529 1490.43 352.977V359.59C1490.45 360.038 1490.06 360.378 1489.57 360.378Z" fill="#90E2F5"/>
<path d="M1486.69 360.378C1486.2 360.378 1485.83 360.038 1485.83 359.59V352.977C1485.83 352.546 1486.22 352.188 1486.69 352.188C1487.17 352.188 1487.55 352.529 1487.55 352.977V359.59C1487.55 360.038 1487.15 360.378 1486.69 360.378Z" fill="#90E2F5"/>
<path d="M1483.78 360.378C1483.3 360.378 1482.92 360.038 1482.92 359.59V352.977C1482.92 352.546 1483.32 352.188 1483.78 352.188C1484.27 352.188 1484.64 352.529 1484.64 352.977V359.59C1484.66 360.038 1484.27 360.378 1483.78 360.378Z" fill="#90E2F5"/>
<path d="M1531.02 398.552H1411.61V409H1531.02V398.552Z" fill="#C8DFEE"/>
</g>
<defs>
<linearGradient id="paint0_linear" x1="197.416" y1="567.974" x2="197.416" y2="388.886" gradientUnits="userSpaceOnUse">
<stop stop-color="white"/>
<stop offset="0.5774" stop-color="#E9F7FF"/>
<stop offset="1" stop-color="#DFF3FF"/>
</linearGradient>
<clipPath id="clip0">
<rect x="1411" y="310" width="120" height="99" fill="white"/>
</clipPath>
</defs>
</svg>
